<?xml version="1.0" encoding="UTF-8"?> <svg xmlns="http://www.w3.org/2000/svg" width="49" height="63" viewBox="0 0 49 63" fill="none"><path fill-rule="evenodd" clip-rule="evenodd" d="M22.1213 9.62922C21.4281 10.9015 21.0456 12.7378 21.0456 14.856C21.0456 16.9743 21.4281 18.8105 22.1213 20.0828C22.7996 21.3279 23.7225 21.9642 24.8867 21.9642C26.0514 21.9642 26.9741 21.3286 27.6521 20.0846C28.3452 18.813 28.7277 16.977 28.7277 14.856C28.7277 12.7378 28.3452 10.9015 27.6521 9.62922C26.9737 8.38417 26.0509 7.74784 24.8867 7.74784C23.7225 7.74784 22.7996 8.38417 22.1213 9.62922ZM20.5741 8.78626C21.4714 7.13921 22.9096 5.9859 24.8867 5.9859C26.8638 5.9859 28.3019 7.13921 29.1993 8.78626C30.0818 10.406 30.4897 12.5644 30.4897 14.856C30.4897 17.15 30.0818 19.3085 29.1992 20.9278C28.3016 22.5747 26.8633 23.7262 24.8867 23.7262C22.9096 23.7262 21.4714 22.5729 20.5741 20.9258C19.6916 19.306 19.2837 17.1476 19.2837 14.856C19.2837 12.5644 19.6916 10.406 20.5741 8.78626Z" fill="white"></path><path fill-rule="evenodd" clip-rule="evenodd" d="M24.8869 2.11448C23.8129 2.11448 22.9387 2.98866 22.9387 4.06269C22.9387 5.13672 23.8129 6.0109 24.8869 6.0109C25.9609 6.0109 26.8351 5.13672 26.8351 4.06269C26.8351 2.98866 25.9609 2.11448 24.8869 2.11448ZM21.1768 4.06269C21.1768 2.01556 22.8398 0.352539 24.8869 0.352539C26.934 0.352539 28.5971 2.01556 28.5971 4.06269C28.5971 6.10982 26.934 7.77284 24.8869 7.77284C22.8398 7.77284 21.1768 6.10981 21.1768 4.06269Z" fill="white"></path><path fill-rule="evenodd" clip-rule="evenodd" d="M24.8868 13.975C25.3734 13.975 25.7678 14.3695 25.7678 14.856V39.4376C25.7678 48.7594 29.1483 54.156 32.4492 57.2277C34.111 58.7741 35.7716 59.7485 37.012 60.3348C37.6318 60.6277 38.1448 60.8229 38.4978 60.9435C38.6743 61.0038 38.8105 61.0455 38.8998 61.0713C38.9444 61.0842 38.9773 61.0932 38.9976 61.0986L39.0185 61.104L39.0198 61.1044L39.0207 61.1046L39.0212 61.1047C39.4931 61.2205 39.7822 61.6966 39.6671 62.1689C39.552 62.6416 39.0754 62.9314 38.6027 62.8162L38.8112 61.9603C38.6027 62.8162 38.6021 62.8161 38.6014 62.8159L38.5998 62.8156L38.5958 62.8145L38.5838 62.8115C38.5741 62.8091 38.5612 62.8057 38.5449 62.8014C38.5125 62.7928 38.4672 62.7804 38.4099 62.7638C38.2952 62.7306 38.1323 62.6806 37.928 62.6108C37.5195 62.4712 36.9447 62.2518 36.2591 61.9277C34.8887 61.28 33.0682 60.2106 31.2489 58.5175C27.5875 55.1103 24.0059 49.2455 24.0059 39.4376V14.856C24.0059 14.3695 24.4003 13.975 24.8868 13.975Z" fill="white"></path><path fill-rule="evenodd" clip-rule="evenodd" d="M38.963 20.117C37.5735 20.5266 36.0049 21.5555 34.5053 23.0551C33.0062 24.5542 31.9784 26.124 31.5692 27.5142C31.1688 28.8748 31.372 29.9774 32.1947 30.8001C33.0202 31.6257 34.123 31.8283 35.4821 31.4276C36.8715 31.0179 38.4401 29.9891 39.9397 28.4895C41.4393 26.9899 42.4682 25.4213 42.8778 24.0318C43.2785 22.6727 43.076 21.5699 42.2504 20.7444C41.4249 19.9189 40.3221 19.7163 38.963 20.117ZM38.4648 18.4269C40.2646 17.8963 42.0968 18.099 43.4963 19.4985C44.8958 20.8981 45.0985 22.7302 44.5679 24.53C44.0462 26.2995 42.8072 28.1138 41.1856 29.7354C39.5641 31.3569 37.7497 32.5959 35.9803 33.1176C34.1805 33.6482 32.3483 33.4456 30.9488 32.046C29.5515 30.6487 29.3493 28.8164 29.879 27.0168C30.3999 25.2469 31.6375 23.4312 33.2595 21.8092C34.881 20.1876 36.6953 18.9486 38.4648 18.4269Z" fill="white"></path><path fill-rule="evenodd" clip-rule="evenodd" d="M43.477 16.7668C42.7168 17.5312 42.7189 18.7656 43.4756 19.523C44.24 20.2832 45.4744 20.2811 46.2318 19.5244C46.992 18.76 46.9899 17.5257 46.2332 16.7682C45.4688 16.008 44.2345 16.0101 43.477 16.7668ZM42.2304 15.5216C43.6777 14.0743 46.0266 14.0763 47.477 15.5202L47.4784 15.5216C48.9257 16.9689 48.9237 19.3177 47.4798 20.7682L47.4784 20.7696C46.0311 22.2169 43.6822 22.2149 42.2318 20.771L42.2304 20.7696C40.7831 19.3223 40.7851 16.9734 42.229 15.523L42.2304 15.5216L42.2304 15.5216Z" fill="white"></path><path fill-rule="evenodd" clip-rule="evenodd" d="M37.8897 25.1963C38.2093 25.5633 38.1709 26.1197 37.8039 26.4393L25.5257 37.1317C25.1588 37.4513 24.6023 37.4129 24.2828 37.0459C23.9633 36.679 24.0017 36.1226 24.3686 35.803L36.6468 25.1105C37.0137 24.791 37.5702 24.8294 37.8897 25.1963Z" fill="white"></path><path fill-rule="evenodd" clip-rule="evenodd" d="M11.3991 18.427C13.1685 18.9487 14.9828 20.1877 16.6044 21.8092C18.2259 23.4308 19.4649 25.2451 19.9866 27.0146C20.5172 28.8144 20.3146 30.6465 18.915 32.0461C17.5155 33.4456 15.6833 33.6483 13.8835 33.1177C12.1141 32.596 10.2998 31.357 8.6782 29.7354C7.05665 28.1139 5.81762 26.2995 5.29596 24.5301C4.76534 22.7303 4.968 20.8981 6.36754 19.4986C7.76708 18.099 9.59923 17.8964 11.3991 18.427ZM10.9008 20.117C9.54171 19.7163 8.43897 19.9189 7.61342 20.7445C6.78788 21.57 6.5853 22.6728 6.98599 24.0318C7.39564 25.4213 8.42448 26.9899 9.92409 28.4895C11.4237 29.9891 12.9923 31.018 14.3818 31.4276C15.7409 31.8283 16.8436 31.6257 17.6692 30.8002C18.4947 29.9746 18.6973 28.8719 18.2966 27.5128C17.8869 26.1233 16.8581 24.5547 15.3585 23.0551C13.8589 21.5555 12.2903 20.5267 10.9008 20.117Z" fill="white"></path><path fill-rule="evenodd" clip-rule="evenodd" d="M2.38709 15.5203C3.83752 14.0765 6.18638 14.0744 7.63368 15.5217L7.6351 15.5231C9.07894 16.9736 9.08097 19.3224 7.63368 20.7697L7.63226 20.7711C6.18182 22.215 3.83296 22.217 2.38567 20.7697L2.38425 20.7683C0.940407 19.3179 0.938371 16.969 2.38567 15.5217L2.38709 15.5203L2.38709 15.5203ZM3.63084 16.7683C2.87413 17.5258 2.8721 18.7602 3.63226 19.5245C4.38973 20.2813 5.62409 20.2833 6.38849 19.5232C7.14521 18.7657 7.14725 17.5313 6.38711 16.7669C5.62963 16.0102 4.39524 16.0081 3.63084 16.7683Z" fill="white"></path><path fill-rule="evenodd" clip-rule="evenodd" d="M11.9744 25.1963C12.294 24.8294 12.8504 24.791 13.2174 25.1105L25.4956 35.803C25.8625 36.1226 25.9009 36.679 25.5814 37.0459C25.2619 37.4129 24.7054 37.4513 24.3385 37.1317L12.0602 26.4393C11.6933 26.1197 11.6549 25.5633 11.9744 25.1963Z" fill="white"></path><path fill-rule="evenodd" clip-rule="evenodd" d="M10.5173 37.4004C12.3577 37.5322 14.3954 38.3548 16.3257 39.592C18.2559 40.8291 19.8536 42.3362 20.7411 43.9527C21.6439 45.5969 21.8376 47.4294 20.7705 49.0951C19.7029 50.7613 17.9555 51.3499 16.0838 51.2158C14.2434 51.084 12.2057 50.2614 10.2754 49.0243C8.34518 47.7871 6.74757 46.28 5.86001 44.6635C4.95723 43.0193 4.76348 41.1868 5.83067 39.5211C6.89822 37.8549 8.64566 37.2663 10.5173 37.4004ZM10.3915 39.1578C8.97711 39.0565 7.9432 39.4899 7.31424 40.4716C6.68493 41.4539 6.72275 42.5739 7.40446 43.8155C8.1014 45.0848 9.4412 46.3968 11.2262 47.5408C13.0111 48.6848 14.764 49.3548 16.2097 49.4584C17.624 49.5597 18.6579 49.1263 19.2869 48.1446C19.9162 47.1623 19.8784 46.0423 19.1967 44.8007C18.4997 43.5314 17.1599 42.2194 15.375 41.0754C13.5901 39.9314 11.8371 39.2614 10.3915 39.1578Z" fill="white"></path><path fill-rule="evenodd" clip-rule="evenodd" d="M1.08836 36.486C2.19194 34.7613 4.489 34.2607 6.21172 35.363C7.93648 36.4665 8.43705 38.7636 7.33478 40.4863C6.2312 42.2111 3.93414 42.7117 2.21142 41.6094C0.486657 40.5058 -0.0139174 38.2087 1.08836 36.486ZM5.2621 36.8471C4.357 36.268 3.15031 36.5326 2.5725 37.4356C1.99337 38.3407 2.25799 39.5474 3.16104 40.1252C4.06613 40.7044 5.27282 40.4397 5.85064 39.5367C6.42976 38.6316 6.16515 37.4249 5.2621 36.8471Z" fill="white"></path><path fill-rule="evenodd" clip-rule="evenodd" d="M12.5258 43.8822C12.7596 43.4555 13.295 43.2992 13.7217 43.533L27.9985 51.356C28.4252 51.5898 28.5815 52.1253 28.3477 52.5519C28.1139 52.9786 27.5785 53.135 27.1518 52.9012L12.875 45.0782C12.4483 44.8444 12.292 44.3089 12.5258 43.8822Z" fill="white"></path></svg> 