<svg xmlns="http://www.w3.org/2000/svg" fill="none" viewBox="2.75 -0.65 18.5 25.29">
  <g transform="translate(3.402 0.004) scale(0.3498) translate(-0.42 -0.79)">
    <path d="M10.7891 22.9937C5.53846 20.6319 2.30646 17.789 2.96583 16.1406C3.58737 14.5813 8.13001 14.8813 13.178 16.5108" stroke="white" stroke-width="2" stroke-linecap="round" stroke-linejoin="round"/>
    <path d="M11.6135 29.9928C6.02232 30.3468 1.6256 29.3902 1.42833 27.658C1.20674 25.7204 6.31418 23.545 12.8349 22.7965C14.9563 22.5533 16.9641 22.4911 18.7179 22.5857" stroke="white" stroke-width="2" stroke-linecap="round" stroke-linejoin="round"/>
    <path d="M25.2253 26.0097C24.9037 28.0337 21.7609 31.5387 17.3047 34.6383C11.9163 38.3891 6.64669 40.1321 5.53333 38.5296C4.41996 36.9298 7.88437 32.5926 13.2728 28.8417C16.4724 26.615 19.6288 25.0963 21.8987 24.5639" stroke="white" stroke-width="2" stroke-linecap="round" stroke-linejoin="round"/>
    <path d="M25.0448 24.9493C26.539 23.6977 24.3336 18.604 20.1188 13.5721C15.904 8.54018 11.276 5.47564 9.78172 6.72723C8.28749 7.97882 10.4929 13.0726 14.7077 18.1045C18.9225 23.1364 23.5506 26.2009 25.0448 24.9493Z" stroke="white" stroke-width="2" stroke-linecap="round" stroke-linejoin="round"/>
    <path d="M25.4119 10.7306C24.0093 5.14752 21.8096 1.45882 20.0693 1.81553C18.4236 2.15602 17.9183 6.46626 18.6371 11.7196" stroke="white" stroke-width="2" stroke-linecap="round" stroke-linejoin="round"/>
    <path d="M32.1918 12.7601C33.5213 7.31755 33.3511 2.82355 31.681 2.32361C29.8137 1.76423 26.7736 6.40956 24.8927 12.7006C24.282 14.7463 23.8685 16.7109 23.6523 18.4539" stroke="white" stroke-width="2" stroke-linecap="round" stroke-linejoin="round"/>
    <path d="M25.8793 25.461C27.9277 25.4988 31.9299 23.0208 35.7645 19.178C40.4017 14.5327 43.0419 9.64955 41.661 8.27135C40.2801 6.89316 35.4024 9.54416 30.7652 14.1895C28.0115 16.9486 26.2604 19.4402 25.3389 21.5831" stroke="white" stroke-width="2" stroke-linecap="round" stroke-linejoin="round"/>
    <path d="M48.5788 38.2026C48.5788 38.2026 34.9265 39.4646 33.1997 54.4788L33.7321 54.3248C48.6977 51.5657 48.5788 38.2053 48.5788 38.2053V38.2026Z" stroke="white" stroke-width="2" stroke-linecap="round" stroke-linejoin="round"/>
    <path d="M12.5486 45.8963C12.5486 45.8963 25.6469 41.8455 32.9783 55.06L32.4271 55.1194C17.5452 58.2893 12.5459 45.8963 12.5459 45.8963H12.5486Z" stroke="white" stroke-width="2" stroke-linecap="round" stroke-linejoin="round"/>
    <path d="M25.5736 25.4314C25.3601 25.8611 33.178 26.9312 33.178 46.1043V68.3852" stroke="white" stroke-width="2" stroke-linecap="round" stroke-linejoin="round"/>
  </g>
</svg>