<svg xmlns="http://www.w3.org/2000/svg" fill="none" viewBox="141.17 -55.92 604.57 557.52">
<path d="M628.051 427.331C622.175 335.778 521.099 255.836 435.075 189.79C573.506 251.22 589.5 224.402 654.387 252.738C684.534 265.911 713.917 289.231 744.993 287.138C722.508 277.569 706.463 256.108 686.605 241.069C636.862 203.462 453.628 174.795 432.06 176.421C415.532 177.669 423.018 186.795 432.083 198.765C490.901 276.321 590.61 332.89 628.051 427.331Z" stroke="#89A16D" stroke-opacity="0.25" stroke-width="1.5" stroke-linecap="round" stroke-linejoin="round"/>
<path d="M566.074 446.726C530.149 385.822 452.15 191.936 397.408 167.357C393.868 176.048 402.045 179.901 425.551 239.383C449.921 301.051 484.105 403.793 566.09 446.744L566.074 446.726Z" stroke="#89A16D" stroke-opacity="0.25" stroke-width="1.5" stroke-linecap="round" stroke-linejoin="round"/>
<path d="M637.349 142.757C665.807 139.031 697.606 144.746 721.899 131.185C634.447 131.639 590.113 102.373 470.333 126.565C444.7 131.736 402.368 135.27 382.226 150.08C391.402 159.725 419.358 157.895 431.422 159.151C569.275 173.501 594.232 148.413 637.366 142.775L637.349 142.757Z" stroke="#89A16D" stroke-opacity="0.25" stroke-width="1.5" stroke-linecap="round" stroke-linejoin="round"/>
<path d="M380.456 295.92C395.417 329.813 413.707 363.481 418.875 399.147C423.9 433.767 417.395 471.939 439.54 500.849C448.267 414.35 430.192 351.615 406.92 282.961C360.191 145.004 361.132 144.734 350.238 138.062C334.218 168.534 364.186 259.068 380.456 295.92Z" stroke="#89A16D" stroke-opacity="0.25" stroke-width="1.5" stroke-linecap="round" stroke-linejoin="round"/>
<path d="M394.105 114.624C446.513 105.691 454.764 94.8947 487.2 74.1008C561.513 26.4502 614.561 38.2196 654.152 2.85557C605.954 23.6092 580.969 -15.4614 474.174 37.8536C433.228 58.3024 332.577 116.671 326.698 120.956C338.535 128.598 352.722 122.849 363.952 119.635C374.336 116.668 384.518 116.274 394.121 114.642L394.105 114.624Z" stroke="#89A16D" stroke-opacity="0.25" stroke-width="1.5" stroke-linecap="round" stroke-linejoin="round"/>
<path d="M303.136 193.161C308.423 221.624 316.672 250 318.596 278.49C321.932 327.99 298.939 411.58 378.125 456.986C352.196 401.546 349.4 340.893 345.527 282.139C332.864 89.2706 280.269 70.1239 303.136 193.161Z" stroke="#89A16D" stroke-opacity="0.25" stroke-width="1.5" stroke-linecap="round" stroke-linejoin="round"/>
<path d="M385.12 67.7903C406.402 55.3731 424.978 38.6561 447.837 28.92C461.655 23.0506 476.824 19.8061 489.852 12.4993C500.147 6.70469 508.788 -1.47311 518.723 -7.82164C539.226 -20.9342 566.613 -27.7061 576.404 -50.4028C540.465 -26.0206 491.162 -27.0815 451.005 -9.57653C408.938 8.75537 378.865 46.521 336.254 63.7801C313.484 73.0102 251.94 84.8166 285.473 93.0042C297.498 95.9312 346.939 90.0325 385.136 67.7759L385.12 67.7903Z" stroke="#89A16D" stroke-opacity="0.25" stroke-width="1.5" stroke-linecap="round" stroke-linejoin="round"/>
<path d="M259.406 137.383C251.793 199.324 271.921 206.499 275.775 248.726C279.708 291.862 243.231 353.846 284.608 392.315C273.311 336.247 289.947 305.245 296.355 269.221C305.988 215.05 287.816 109.668 267.324 88.5376C259.4 97.5974 260.995 124.458 259.406 137.383Z" stroke="#89A16D" stroke-opacity="0.25" stroke-width="1.5" stroke-linecap="round" stroke-linejoin="round"/>
<path d="M340.613 46.3989C419.435 26.5476 395.44 -16.0091 480.886 -54.9812C432.09 -58.5973 406.797 -9.46495 367.883 9.78351C329.319 28.8438 277.428 20.5643 243.219 46.1139C236.422 51.2028 229.663 58.9051 240.168 65.2457C248.248 70.1032 337.852 47.0865 340.597 46.381L340.613 46.3989Z" stroke="#89A16D" stroke-opacity="0.25" stroke-width="1.5" stroke-linecap="round" stroke-linejoin="round"/>
<path d="M214.713 196.202C208.399 227.662 178.584 261.171 207.175 312.385C186.746 263.959 242.924 244.492 243.385 139.377C243.469 121.023 243.873 76.5136 229.095 61.6792C200.125 91.6056 222.222 158.781 214.713 196.202Z" stroke="#89A16D" stroke-opacity="0.25" stroke-width="1.5" stroke-linecap="round" stroke-linejoin="round"/>
<path d="M699.742 268.518C615.244 192.971 493.648 215.648 398.278 164.374C304.377 113.885 188.928 48.9822 141.922 -43.4682" stroke="#89A16D" stroke-opacity="0.25" stroke-width="1.5" stroke-linecap="round" stroke-linejoin="round"/>
<path d="M653.129 136.308C473.047 131.445 404.96 156.969 367.502 147.653" stroke="#89A16D" stroke-opacity="0.25" stroke-width="1.5" stroke-linecap="round" stroke-linejoin="round"/>
<path d="M611.373 381.207C564.472 302.523 418.531 194.322 426.102 177.541" stroke="#89A16D" stroke-opacity="0.25" stroke-width="1.5" stroke-linecap="round" stroke-linejoin="round"/>
<path d="M537.727 412.097C493.363 378.64 460.216 254.843 392.901 161.496" stroke="#89A16D" stroke-opacity="0.25" stroke-width="1.5" stroke-linecap="round" stroke-linejoin="round"/>
<path d="M430.993 448.844C425.719 414.713 427.04 380.287 417.784 346.553C400.623 283.899 358.059 228.986 351.013 138.5" stroke="#89A16D" stroke-opacity="0.25" stroke-width="1.5" stroke-linecap="round" stroke-linejoin="round"/>
<path d="M600.159 17.3529C436.586 49.2222 379.767 111.289 322.583 121.112" stroke="#89A16D" stroke-opacity="0.25" stroke-width="1.5" stroke-linecap="round" stroke-linejoin="round"/>
<path d="M351.983 417.631C322.062 347.719 355.114 332.935 303.284 110.337" stroke="#89A16D" stroke-opacity="0.25" stroke-width="1.5" stroke-linecap="round" stroke-linejoin="round"/>
<path d="M522.854 -16.626C351.472 70.3985 318.993 90.4145 267.88 87.1469" stroke="#89A16D" stroke-opacity="0.25" stroke-width="1.5" stroke-linecap="round" stroke-linejoin="round"/>
<path d="M205.358 251.885C250.017 157.98 214.129 157.434 229.61 58.5289" stroke="#89A16D" stroke-opacity="0.25" stroke-width="1.5" stroke-linecap="round" stroke-linejoin="round"/>
<path d="M276.69 323.094C275.268 284.043 293.663 248.429 290.462 209.268C287.338 170.986 262.962 124.265 267.88 87.1471" stroke="#89A16D" stroke-opacity="0.25" stroke-width="1.5" stroke-linecap="round" stroke-linejoin="round"/>
<path d="M437.095 -38.4117C368.848 33.0009 361.335 27.4629 233.014 61.3088" stroke="#89A16D" stroke-opacity="0.25" stroke-width="1.5" stroke-linecap="round" stroke-linejoin="round"/>
</svg>