<svg xmlns="http://www.w3.org/2000/svg" fill="none" viewBox="141.17 222.01 604.57 557.52">
<path d="M628.051 705.267C622.175 613.714 521.099 533.771 435.075 467.726C573.506 529.155 589.5 502.337 654.387 530.673C684.534 543.847 713.917 567.167 744.993 565.073C722.508 555.504 706.463 534.044 686.605 519.005C636.862 481.398 453.628 452.73 432.06 454.357C415.532 455.604 423.018 464.731 432.083 476.7C490.901 554.256 590.61 610.826 628.051 705.267Z" stroke="#89A16D" stroke-opacity="0.25" stroke-width="1.5" stroke-linecap="round" stroke-linejoin="round"/>
<path d="M566.074 724.662C530.149 663.757 452.15 469.872 397.408 445.293C393.868 453.983 402.045 457.836 425.551 517.318C449.921 578.986 484.105 681.729 566.09 724.68L566.074 724.662Z" stroke="#89A16D" stroke-opacity="0.25" stroke-width="1.5" stroke-linecap="round" stroke-linejoin="round"/>
<path d="M637.349 420.693C665.807 416.967 697.606 422.682 721.899 409.12C634.447 409.575 590.113 380.309 470.332 404.5C444.699 409.672 402.368 413.205 382.226 428.015C391.401 437.661 419.358 435.83 431.422 437.086C569.275 451.437 594.232 426.349 637.365 420.711L637.349 420.693Z" stroke="#89A16D" stroke-opacity="0.25" stroke-width="1.5" stroke-linecap="round" stroke-linejoin="round"/>
<path d="M380.456 573.855C395.417 607.748 413.707 641.417 418.875 677.082C423.9 711.702 417.396 749.875 439.54 778.784C448.267 692.285 430.192 629.55 406.92 560.896C360.191 422.94 361.132 422.67 350.238 415.998C334.218 446.47 364.186 537.004 380.456 573.855Z" stroke="#89A16D" stroke-opacity="0.25" stroke-width="1.5" stroke-linecap="round" stroke-linejoin="round"/>
<path d="M394.105 392.559C446.513 383.627 454.764 372.83 487.2 352.036C561.513 304.386 614.561 316.155 654.152 280.791C605.954 301.545 580.969 262.474 474.174 315.789C433.228 336.238 332.577 394.606 326.698 398.891C338.535 406.534 352.722 400.784 363.952 397.57C374.336 394.604 384.518 394.209 394.121 392.577L394.105 392.559Z" stroke="#89A16D" stroke-opacity="0.25" stroke-width="1.5" stroke-linecap="round" stroke-linejoin="round"/>
<path d="M303.136 471.097C308.423 499.559 316.672 527.936 318.595 556.425C321.932 605.925 298.939 689.515 378.125 734.921C352.195 679.482 349.4 618.829 345.527 560.075C332.864 367.206 280.268 348.059 303.136 471.097Z" stroke="#89A16D" stroke-opacity="0.25" stroke-width="1.5" stroke-linecap="round" stroke-linejoin="round"/>
<path d="M385.12 345.726C406.402 333.309 424.978 316.592 447.837 306.856C461.655 300.986 476.824 297.742 489.852 290.435C500.147 284.64 508.789 276.462 518.723 270.114C539.226 257.001 566.613 250.229 576.404 227.533C540.465 251.915 491.162 250.854 451.005 268.359C408.938 286.691 378.866 324.457 336.255 341.716C313.484 350.946 251.94 362.752 285.474 370.94C297.498 373.867 346.939 367.968 385.136 345.711L385.12 345.726Z" stroke="#89A16D" stroke-opacity="0.25" stroke-width="1.5" stroke-linecap="round" stroke-linejoin="round"/>
<path d="M259.406 415.319C251.793 477.26 271.921 484.435 275.775 526.661C279.708 569.798 243.231 631.781 284.608 670.251C273.311 614.183 289.947 583.181 296.355 547.157C305.988 492.986 287.816 387.604 267.324 366.473C259.4 375.533 260.995 402.393 259.406 415.319Z" stroke="#89A16D" stroke-opacity="0.25" stroke-width="1.5" stroke-linecap="round" stroke-linejoin="round"/>
<path d="M340.613 324.334C419.435 304.483 395.44 261.926 480.886 222.954C432.09 219.338 406.797 268.471 367.883 287.719C329.319 306.779 277.428 298.5 243.219 324.049C236.422 329.138 229.663 336.841 240.168 343.181C248.248 348.039 337.852 325.022 340.597 324.316L340.613 324.334Z" stroke="#89A16D" stroke-opacity="0.25" stroke-width="1.5" stroke-linecap="round" stroke-linejoin="round"/>
<path d="M214.714 474.138C208.399 505.597 178.585 539.106 207.175 590.32C186.747 541.894 242.925 522.428 243.386 417.312C243.469 398.959 243.873 354.449 229.095 339.615C200.125 369.541 222.222 436.717 214.714 474.138Z" stroke="#89A16D" stroke-opacity="0.25" stroke-width="1.5" stroke-linecap="round" stroke-linejoin="round"/>
<path d="M699.742 546.453C615.244 470.907 493.648 493.583 398.278 442.309C304.377 391.82 188.928 326.918 141.922 234.467" stroke="#89A16D" stroke-opacity="0.25" stroke-width="1.5" stroke-linecap="round" stroke-linejoin="round"/>
<path d="M653.129 414.243C473.047 409.381 404.96 434.905 367.502 425.589" stroke="#89A16D" stroke-opacity="0.25" stroke-width="1.5" stroke-linecap="round" stroke-linejoin="round"/>
<path d="M611.373 659.142C564.472 580.459 418.531 472.257 426.102 455.476" stroke="#89A16D" stroke-opacity="0.25" stroke-width="1.5" stroke-linecap="round" stroke-linejoin="round"/>
<path d="M537.726 690.032C493.362 656.575 460.216 532.778 392.901 439.432" stroke="#89A16D" stroke-opacity="0.25" stroke-width="1.5" stroke-linecap="round" stroke-linejoin="round"/>
<path d="M430.993 726.779C425.719 692.648 427.04 658.223 417.784 624.488C400.623 561.834 358.059 506.922 351.013 416.435" stroke="#89A16D" stroke-opacity="0.25" stroke-width="1.5" stroke-linecap="round" stroke-linejoin="round"/>
<path d="M600.159 295.288C436.586 327.158 379.768 389.224 322.583 399.048" stroke="#89A16D" stroke-opacity="0.25" stroke-width="1.5" stroke-linecap="round" stroke-linejoin="round"/>
<path d="M351.983 695.566C322.061 625.655 355.114 610.87 303.284 388.273" stroke="#89A16D" stroke-opacity="0.25" stroke-width="1.5" stroke-linecap="round" stroke-linejoin="round"/>
<path d="M522.854 261.31C351.472 348.334 318.993 368.35 267.88 365.082" stroke="#89A16D" stroke-opacity="0.25" stroke-width="1.5" stroke-linecap="round" stroke-linejoin="round"/>
<path d="M205.358 529.82C250.017 435.916 214.129 435.369 229.61 336.464" stroke="#89A16D" stroke-opacity="0.25" stroke-width="1.5" stroke-linecap="round" stroke-linejoin="round"/>
<path d="M276.689 601.029C275.268 561.978 293.663 526.364 290.462 487.204C287.338 448.921 262.962 402.2 267.88 365.083" stroke="#89A16D" stroke-opacity="0.25" stroke-width="1.5" stroke-linecap="round" stroke-linejoin="round"/>
<path d="M437.095 239.524C368.848 310.936 361.335 305.398 233.014 339.244" stroke="#89A16D" stroke-opacity="0.25" stroke-width="1.5" stroke-linecap="round" stroke-linejoin="round"/>
</svg>