<?xml version="1.0" encoding="UTF-8"?> <svg xmlns="http://www.w3.org/2000/svg" width="59" height="62" viewBox="0 0 59 62" fill="none"><path fill-rule="evenodd" clip-rule="evenodd" d="M46.2513 8.02198L45.4843 7.97009L45.4324 7.20311C45.6538 7.18813 45.8709 7.26958 46.0279 7.42651C46.1848 7.58345 46.2662 7.80055 46.2513 8.02198ZM29.2266 24.2278C28.4596 24.1759 28.4597 24.1756 28.4597 24.1753L28.4599 24.1728L28.4603 24.1672L28.4616 24.1487C28.4629 24.1331 28.4646 24.1111 28.4671 24.0829C28.472 24.0266 28.4797 23.9457 28.491 23.8423C28.5137 23.6357 28.5509 23.3393 28.6097 22.971C28.7274 22.2352 28.9321 21.209 29.2818 20.0378C29.9783 17.7053 31.2653 14.7455 33.6337 12.3772C36.0021 10.0088 38.9618 8.72178 41.2944 8.02529C42.4655 7.6756 43.4917 7.47084 44.2275 7.35321C44.5958 7.29434 44.8922 7.25715 45.0989 7.23452C45.2022 7.2232 45.2832 7.21551 45.3395 7.21057C45.3676 7.2081 45.3896 7.20632 45.4052 7.20511L45.4237 7.20372L45.4293 7.20332L45.4312 7.20319L45.4319 7.20315C45.4321 7.20313 45.4324 7.20311 45.4843 7.97009C46.2513 8.02198 46.2512 8.02224 46.2512 8.02252L46.2512 8.02321L46.2511 8.02507L46.2507 8.03064L46.2493 8.04915C46.2481 8.06473 46.2463 8.08674 46.2438 8.1149C46.2389 8.17122 46.2312 8.25217 46.2199 8.35551C46.1972 8.56214 46.16 8.85859 46.1012 9.22684C45.9835 9.96265 45.7788 10.9889 45.4291 12.16C44.7326 14.4926 43.4456 17.4523 41.0772 19.8207C38.7088 22.189 35.7491 23.4761 33.4165 24.1726C32.2454 24.5222 31.2192 24.727 30.4834 24.8446C30.1151 24.9035 29.8187 24.9407 29.612 24.9633C29.5087 24.9746 29.4277 24.9823 29.3714 24.9873C29.3433 24.9897 29.3213 24.9915 29.3057 24.9927L29.2872 24.9941L29.2816 24.9945L29.2797 24.9946L29.279 24.9947C29.2788 24.9947 29.2785 24.9947 29.2266 24.2278ZM29.2266 24.2278L28.4596 24.1759C28.4447 24.3973 28.5261 24.6144 28.683 24.7713C28.84 24.9283 29.0571 25.0097 29.2785 24.9947L29.2266 24.2278ZM30.1071 23.3473C30.1503 23.3407 30.1949 23.3338 30.2407 23.3264C30.9235 23.2173 31.8822 23.0262 32.9766 22.6994C35.1752 22.0429 37.869 20.8546 39.99 18.7335C42.1111 16.6125 43.2994 13.9187 43.9559 11.7201C44.2827 10.6257 44.4738 9.66692 44.583 8.98414C44.5903 8.93833 44.5972 8.89378 44.6038 8.85054C44.5606 8.85713 44.516 8.86408 44.4702 8.87141C43.7875 8.98056 42.8287 9.17169 41.7343 9.49849C39.5357 10.155 36.8419 11.3433 34.7209 13.4643C32.5998 15.5854 31.4115 18.2791 30.755 20.4777C30.4282 21.5722 30.2371 22.5309 30.1279 23.2137C30.1206 23.2595 30.1137 23.3041 30.1071 23.3473Z" fill="white"></path><path fill-rule="evenodd" clip-rule="evenodd" d="M13.025 7.20311L12.9731 7.97009L12.2061 8.02198C12.1911 7.80055 12.2726 7.58345 12.4295 7.42651C12.5864 7.26958 12.8035 7.18813 13.025 7.20311ZM29.2307 24.2278C29.9977 24.1759 29.9977 24.1756 29.9977 24.1753L29.9976 24.1746L29.9975 24.1728L29.9971 24.1672L29.9957 24.1487C29.9953 24.1436 29.9949 24.1379 29.9944 24.1315C29.9933 24.1181 29.9919 24.1019 29.9903 24.0829C29.9853 24.0266 29.9776 23.9457 29.9663 23.8423C29.9437 23.6357 29.9065 23.3393 29.8476 22.971C29.73 22.2352 29.5252 21.209 29.1755 20.0378C28.4791 17.7053 27.192 14.7455 24.8237 12.3772C22.4553 10.0088 19.4955 8.72178 17.163 8.02529C15.9919 7.6756 14.9656 7.47084 14.2298 7.35321C13.8616 7.29434 13.5651 7.25715 13.3585 7.23452C13.2552 7.2232 13.1742 7.21551 13.1179 7.21057C13.0897 7.2081 13.0677 7.20632 13.0521 7.20511L13.0336 7.20372L13.0281 7.20332L13.0255 7.20315C13.0252 7.20313 13.025 7.20311 12.9731 7.97009C12.2061 8.02198 12.2061 8.02224 12.2061 8.02252L12.2063 8.02507L12.2067 8.03064L12.2081 8.04915C12.2093 8.06473 12.2111 8.08674 12.2136 8.1149C12.2185 8.17122 12.2262 8.25217 12.2375 8.35551C12.2601 8.56214 12.2973 8.85859 12.3562 9.22684C12.4738 9.96265 12.6786 10.9889 13.0283 12.16C13.7248 14.4926 15.0118 17.4523 17.3802 19.8207C19.7485 22.189 22.7083 23.4761 25.0408 24.1726C26.2119 24.5222 27.2382 24.727 27.974 24.8446C28.3422 24.9035 28.6387 24.9407 28.8453 24.9633C28.9487 24.9746 29.0296 24.9823 29.0859 24.9873C29.0959 24.9881 29.1051 24.9889 29.1135 24.9896C29.1289 24.9909 29.1416 24.992 29.1517 24.9927L29.1702 24.9941L29.1758 24.9945L29.1776 24.9946L29.1783 24.9947C29.1786 24.9947 29.1789 24.9947 29.2307 24.2278ZM29.2307 24.2278L29.9977 24.1759C30.0127 24.3973 29.9313 24.6144 29.7743 24.7713C29.6174 24.9283 29.4003 25.0097 29.1789 24.9947L29.2307 24.2278ZM28.3503 23.3473C28.3437 23.3041 28.3368 23.2595 28.3294 23.2137C28.2203 22.5309 28.0291 21.5722 27.7023 20.4777C27.0459 18.2791 25.8575 15.5854 23.7365 13.4643C21.6155 11.3433 18.9217 10.155 16.7231 9.49849C15.6287 9.17169 14.6699 8.98056 13.9871 8.87141C13.9413 8.86408 13.8968 8.85713 13.8535 8.85054C13.8601 8.89378 13.8671 8.93833 13.8744 8.98414C13.9835 9.66692 14.1747 10.6257 14.5015 11.7201C15.158 13.9187 16.3463 16.6125 18.4673 18.7335C20.5884 20.8546 23.2821 22.0429 25.4807 22.6994C26.5752 23.0262 27.5339 23.2173 28.2167 23.3264C28.2625 23.3338 28.3071 23.3407 28.3503 23.3473ZM12.9206 8.73703C12.9205 8.73703 12.9205 8.73703 12.9206 8.73703V8.73703ZM13.74 7.91761C13.74 7.9175 13.74 7.91751 13.74 7.91761V7.91761Z" fill="white"></path><path fill-rule="evenodd" clip-rule="evenodd" d="M29.8058 0.730383L29.2267 1.2359L28.6475 0.730383C28.7935 0.563135 29.0047 0.467163 29.2267 0.467163C29.4487 0.467163 29.6598 0.563135 29.8058 0.730383ZM29.2267 24.2277C28.6475 24.7332 28.6473 24.733 28.6472 24.7328L28.6455 24.7309L28.6418 24.7266L28.6297 24.7126C28.6196 24.7007 28.6053 24.6839 28.5871 24.6622C28.5508 24.6189 28.499 24.5562 28.4339 24.4751C28.3039 24.313 28.1206 24.077 27.9018 23.7749C27.4648 23.1714 26.8841 22.3008 26.3033 21.2253C25.1467 19.0833 23.9641 16.0804 23.9641 12.7318C23.9641 9.38313 25.1467 6.38024 26.3033 4.23825C26.8841 3.16281 27.4648 2.29223 27.9018 1.68866C28.1206 1.3866 28.3039 1.15062 28.4339 0.988478C28.499 0.907385 28.5508 0.844694 28.5871 0.801371C28.6053 0.779708 28.6196 0.762881 28.6297 0.751011L28.6418 0.736936L28.6455 0.732714L28.6467 0.731311L28.6472 0.730788C28.6473 0.730575 28.6475 0.730383 29.2267 1.2359C29.8058 0.730383 29.806 0.730576 29.8062 0.730788L29.8078 0.732714L29.8115 0.736936L29.8236 0.751011C29.8337 0.762881 29.848 0.779708 29.8662 0.801371C29.9025 0.844694 29.9543 0.907385 30.0194 0.988478C30.1495 1.15062 30.3327 1.3866 30.5515 1.68866C30.9885 2.29223 31.5693 3.16281 32.15 4.23825C33.3066 6.38024 34.4892 9.38313 34.4892 12.7318C34.4892 16.0804 33.3066 19.0833 32.15 21.2253C31.5693 22.3008 30.9885 23.1714 30.5515 23.7749C30.3327 24.077 30.1495 24.313 30.0194 24.4751C29.9543 24.5562 29.9025 24.6189 29.8662 24.6622C29.848 24.6839 29.8337 24.7007 29.8236 24.7126L29.8115 24.7266L29.8078 24.7309L29.8062 24.7328C29.806 24.733 29.8058 24.7332 29.2267 24.2277ZM29.2267 24.2277L28.6475 24.7332C28.7935 24.9004 29.0047 24.9964 29.2267 24.9964C29.4487 24.9964 29.6598 24.9004 29.8058 24.7332L29.2267 24.2277ZM29.2267 22.9822C29.2525 22.947 29.279 22.9107 29.3062 22.8732C29.7117 22.3131 30.2544 21.4999 30.7971 20.4948C31.8874 18.4757 32.9517 15.7307 32.9517 12.7318C32.9517 9.73289 31.8874 6.98784 30.7971 4.96877C30.2544 3.96369 29.7117 3.15045 29.3062 2.59035C29.279 2.55287 29.2525 2.51653 29.2267 2.48136C29.2008 2.51653 29.1743 2.55287 29.1471 2.59035C28.7416 3.15045 28.1989 3.96369 27.6562 4.96877C26.5659 6.98784 25.5016 9.73289 25.5016 12.7318C25.5016 15.7307 26.5659 18.4757 27.6562 20.4948C28.1989 21.4999 28.7416 22.3131 29.1471 22.8732C29.1743 22.9107 29.2008 22.947 29.2267 22.9822ZM29.8062 1.74097C29.8063 1.74089 29.8063 1.74088 29.8062 1.74097V1.74097Z" fill="white"></path><path fill-rule="evenodd" clip-rule="evenodd" d="M29.2266 23.4591C29.6512 23.4591 29.9954 23.8033 29.9954 24.2278V60.2574C29.9954 60.6819 29.6512 61.0261 29.2266 61.0261C28.8021 61.0261 28.4579 60.6819 28.4579 60.2574V24.2278C28.4579 23.8033 28.8021 23.4591 29.2266 23.4591Z" fill="white"></path><path fill-rule="evenodd" clip-rule="evenodd" d="M48.3394 32.9317C48.6392 33.2324 48.6384 33.7191 48.3377 34.0188L29.7651 52.5344C29.4644 52.8341 28.9777 52.8334 28.6779 52.5327C28.3782 52.232 28.3789 51.7453 28.6796 51.4456L47.2523 32.93C47.5529 32.6303 48.0397 32.631 48.3394 32.9317Z" fill="white"></path><path fill-rule="evenodd" clip-rule="evenodd" d="M42.5324 38.737L42.0271 39.3163C41.8598 39.1704 41.7637 38.9592 41.7637 38.7372C41.7636 38.5152 41.8595 38.304 42.0267 38.158L42.5324 38.737ZM57.4151 38.737L57.9208 39.316C58.088 39.17 58.1839 38.9589 58.1839 38.737C58.1839 38.515 58.088 38.3039 57.9208 38.158L57.4151 38.737ZM43.8063 38.7367C44.1399 38.9666 44.5704 39.2405 45.078 39.5145C46.3636 40.2084 48.095 40.8762 49.9738 40.8762C51.8548 40.8762 53.5863 40.2083 54.8711 39.5145C55.3783 39.2407 55.8084 38.9668 56.1416 38.737C55.8084 38.5071 55.3783 38.2333 54.8711 37.9594C53.5863 37.2656 51.8548 36.5977 49.9738 36.5977C48.0927 36.5977 46.3613 37.2656 45.0765 37.9594C44.5695 38.2332 44.1395 38.5069 43.8063 38.7367ZM44.346 36.6065C45.7539 35.8463 47.7432 35.0602 49.9738 35.0602C52.2044 35.0602 54.1936 35.8463 55.6016 36.6065C56.31 36.9891 56.8834 37.3716 57.2815 37.66C57.4809 37.8044 57.6371 37.9258 57.7452 38.0125C57.7992 38.0559 57.8413 38.0906 57.8708 38.1153C57.8855 38.1277 57.8971 38.1375 57.9055 38.1447L57.9156 38.1534L57.9188 38.1562L57.9204 38.1576C57.9206 38.1578 57.9208 38.158 57.4151 38.737C57.9208 39.316 57.9206 39.3161 57.9204 39.3163L57.9188 39.3177L57.9156 39.3205L57.9055 39.3292C57.8971 39.3364 57.8855 39.3462 57.8708 39.3586C57.8413 39.3833 57.7992 39.4181 57.7452 39.4615C57.6371 39.5482 57.4809 39.6695 57.2815 39.8139C56.8834 40.1023 56.31 40.4849 55.6016 40.8674C54.1936 41.6277 52.2044 42.4137 49.9738 42.4137C47.7453 42.4137 45.7561 41.6276 44.3477 40.8675C43.6391 40.485 43.0653 40.1025 42.6669 39.8141C42.4674 39.6698 42.311 39.5484 42.2029 39.4617C42.1488 39.4183 42.1067 39.3836 42.0772 39.3589C42.0624 39.3465 42.0508 39.3367 42.0425 39.3295L42.0323 39.3208L42.0291 39.318L42.0275 39.3166C42.0273 39.3165 42.0271 39.3163 42.5324 38.737C42.0267 38.158 42.0269 38.1578 42.0271 38.1576L42.0276 38.1572L42.0287 38.1562L42.032 38.1534L42.0421 38.1447C42.0504 38.1375 42.062 38.1277 42.0768 38.1153C42.1062 38.0906 42.1483 38.0559 42.2023 38.0125C42.3104 37.9258 42.4666 37.8044 42.666 37.66C43.0642 37.3716 43.6376 36.9891 44.346 36.6065Z" fill="white"></path><path fill-rule="evenodd" clip-rule="evenodd" d="M43.1157 23.3486L42.5367 23.8542L41.9577 23.3486C42.1037 23.1814 42.3148 23.0855 42.5367 23.0855C42.7587 23.0855 42.9698 23.1814 43.1157 23.3486ZM42.5367 38.737C41.9574 39.2423 41.9572 39.2421 41.9571 39.2419L41.9567 39.2414L41.9557 39.2403L41.9529 39.237L41.9442 39.2269C41.937 39.2185 41.9272 39.2069 41.9148 39.1922C41.8901 39.1627 41.8554 39.1206 41.812 39.0665C41.7253 38.9584 41.6039 38.802 41.4596 38.6025C41.1712 38.204 40.7887 37.6303 40.4062 36.9216C39.6461 35.5133 38.86 33.5241 38.86 31.2956C38.86 29.065 39.646 27.0758 40.4063 25.6678C40.7888 24.9594 41.1714 24.386 41.4598 23.9878C41.6042 23.7885 41.7255 23.6322 41.8123 23.5242C41.8556 23.4701 41.8904 23.4281 41.9151 23.3986C41.9275 23.3839 41.9373 23.3723 41.9445 23.3639L41.9532 23.3538L41.956 23.3506L41.957 23.3494L41.9574 23.349C41.9576 23.3488 41.9577 23.3486 42.5367 23.8542C43.1157 23.3486 43.1159 23.3488 43.1161 23.349L43.1165 23.3494L43.1175 23.3506L43.1203 23.3538L43.129 23.3639C43.1362 23.3723 43.146 23.3839 43.1584 23.3986C43.1831 23.4281 43.2178 23.4701 43.2612 23.5242C43.3479 23.6322 43.4693 23.7885 43.6137 23.9878C43.9021 24.386 44.2846 24.9594 44.6672 25.6678C45.4274 27.0758 46.2135 29.065 46.2135 31.2956C46.2135 33.5262 45.4274 35.5154 44.6672 36.9234C44.2846 37.6318 43.9021 38.2052 43.6137 38.6034C43.4693 38.8027 43.3479 38.959 43.2612 39.067C43.2178 39.1211 43.1831 39.1631 43.1584 39.1926C43.146 39.2073 43.1362 39.2189 43.129 39.2273L43.1203 39.2374L43.1175 39.2406L43.1161 39.2423C43.1159 39.2425 43.1157 39.2426 42.5367 38.737ZM42.5367 38.737L41.9574 39.2423C42.1033 39.4096 42.3145 39.5056 42.5365 39.5057C42.7585 39.5058 42.9697 39.4099 43.1157 39.2426L42.5367 38.737ZM42.537 37.4631C42.7668 37.1299 43.0406 36.6999 43.3143 36.1929C44.0081 34.9081 44.676 33.1766 44.676 31.2956C44.676 29.4146 44.0081 27.6831 43.3143 26.3983C43.0404 25.8911 42.7666 25.461 42.5367 25.1277C42.3069 25.461 42.033 25.8911 41.7592 26.3983C41.0654 27.6831 40.3975 29.4146 40.3975 31.2956C40.3975 33.1744 41.0653 34.9058 41.7592 36.1914C42.0332 36.699 42.3071 37.1295 42.537 37.4631Z" fill="white"></path><path fill-rule="evenodd" clip-rule="evenodd" d="M10.0922 32.9317C10.392 32.631 10.8787 32.6303 11.1794 32.93L29.752 51.4456C30.0527 51.7453 30.0535 52.232 29.7537 52.5327C29.454 52.8334 28.9672 52.8341 28.6666 52.5344L10.0939 34.0188C9.79324 33.7191 9.79249 33.2324 10.0922 32.9317Z" fill="white"></path><path fill-rule="evenodd" clip-rule="evenodd" d="M2.83011 36.6066C4.23808 35.8463 6.22731 35.0602 8.4579 35.0602C10.6885 35.0602 12.6777 35.8463 14.0857 36.6066C14.7941 36.9891 15.3675 37.3716 15.7657 37.66C15.965 37.8044 16.1213 37.9258 16.2293 38.0125C16.2834 38.0559 16.3254 38.0907 16.3549 38.1154C16.3696 38.1277 16.3812 38.1376 16.3896 38.1447L16.3997 38.1534L16.4029 38.1562L16.4046 38.1577C16.4047 38.1578 16.4049 38.158 15.8993 38.737C16.4046 39.3163 16.4044 39.3165 16.4042 39.3167L16.4037 39.3171L16.4026 39.3181L16.3993 39.3209L16.3892 39.3296C16.3808 39.3367 16.3692 39.3466 16.3545 39.3589C16.325 39.3836 16.2829 39.4184 16.2288 39.4617C16.1207 39.5484 15.9643 39.6698 15.7648 39.8142C15.3663 40.1025 14.7926 40.485 14.0839 40.8675C12.6756 41.6276 10.6864 42.4137 8.4579 42.4137C6.22731 42.4137 4.23808 41.6277 2.83011 40.8674C2.1217 40.4849 1.54829 40.1023 1.15012 39.814C0.950756 39.6696 0.794542 39.5482 0.686481 39.4615C0.63243 39.4181 0.590361 39.3833 0.560898 39.3586C0.546165 39.3463 0.534578 39.3364 0.526214 39.3292L0.516094 39.3205L0.512864 39.3177L0.511248 39.3163C0.51105 39.3162 0.510864 39.316 1.01654 38.737C0.510863 38.158 0.511049 38.1578 0.511248 38.1577L0.51171 38.1573L0.512864 38.1562L0.516094 38.1534L0.526214 38.1447C0.534577 38.1376 0.546165 38.1277 0.560898 38.1154C0.59036 38.0907 0.63243 38.0559 0.686481 38.0125C0.794542 37.9258 0.950756 37.8044 1.15012 37.66C1.54829 37.3716 2.1217 36.9891 2.83011 36.6066ZM1.01654 38.737L0.510863 38.158C0.343711 38.304 0.247803 38.5151 0.247803 38.737C0.247803 38.9589 0.343711 39.17 0.510864 39.316L1.01654 38.737ZM2.29002 38.737C2.62325 38.9668 3.05338 39.2407 3.5606 39.5146C4.8454 40.2083 6.57686 40.8763 8.4579 40.8763C10.3367 40.8763 12.0681 40.2084 13.3537 39.5145C13.8612 39.2406 14.2918 38.9666 14.6254 38.7367C14.2922 38.5069 13.8622 38.2332 13.3552 37.9594C12.0704 37.2657 10.3389 36.5977 8.4579 36.5977C6.57686 36.5977 4.8454 37.2657 3.5606 37.9594C3.05338 38.2333 2.62325 38.5072 2.29002 38.737ZM15.8993 38.737L16.4046 39.3163C16.5719 39.1704 16.6679 38.9593 16.668 38.7372C16.6681 38.5152 16.5722 38.304 16.4049 38.158L15.8993 38.737Z" fill="white"></path><path fill-rule="evenodd" clip-rule="evenodd" d="M16.4783 23.3486L15.8993 23.8542L15.3203 23.3486C15.4663 23.1814 15.6774 23.0855 15.8993 23.0855C16.1212 23.0855 16.3323 23.1814 16.4783 23.3486ZM15.8993 38.737C15.3203 39.2426 15.3201 39.2425 15.3199 39.2423L15.3185 39.2406L15.3157 39.2374L15.307 39.2273C15.2999 39.2189 15.29 39.2073 15.2777 39.1926C15.2529 39.1631 15.2182 39.1211 15.1748 39.067C15.0881 38.959 14.9667 38.8027 14.8223 38.6034C14.5339 38.2052 14.1514 37.6318 13.7689 36.9234C13.0086 35.5154 12.2225 33.5262 12.2225 31.2956C12.2225 29.065 13.0086 27.0758 13.7689 25.6678C14.1514 24.9594 14.5339 24.386 14.8223 23.9878C14.9667 23.7885 15.0881 23.6322 15.1748 23.5242C15.2182 23.4701 15.2529 23.4281 15.2777 23.3986C15.29 23.3839 15.2999 23.3723 15.307 23.3639L15.3157 23.3538L15.3185 23.3506L15.3195 23.3494L15.3199 23.349C15.3201 23.3488 15.3203 23.3486 15.8993 23.8542C16.4783 23.3486 16.4785 23.3488 16.4786 23.349L16.48 23.3506L16.4828 23.3538L16.4915 23.3639C16.4987 23.3723 16.5086 23.3839 16.5209 23.3986C16.5456 23.4281 16.5804 23.4701 16.6238 23.5242C16.7105 23.6322 16.8319 23.7885 16.9763 23.9878C17.2646 24.386 17.6472 24.9594 18.0297 25.6678C18.79 27.0758 19.576 29.065 19.576 31.2956C19.576 33.5241 18.7899 35.5133 18.0298 36.9216C17.6473 37.6303 17.2648 38.204 16.9764 38.6025C16.8321 38.802 16.7107 38.9584 16.624 39.0665C16.5807 39.1206 16.5459 39.1627 16.5212 39.1922C16.5089 39.2069 16.499 39.2185 16.4919 39.2269L16.4832 39.237L16.4804 39.2403L16.4794 39.2414L16.479 39.2419C16.4788 39.2421 16.4786 39.2423 15.8993 38.737ZM15.8993 38.737L15.3203 39.2426C15.4663 39.4099 15.6775 39.5058 15.8995 39.5057C16.1216 39.5056 16.3327 39.4096 16.4786 39.2423L15.8993 38.737ZM15.899 37.4631C16.1289 37.1295 16.4028 36.699 16.6768 36.1914C17.3707 34.9058 18.0386 33.1744 18.0386 31.2956C18.0386 29.4146 17.3706 27.6831 16.6769 26.3983C16.403 25.8911 16.1291 25.461 15.8993 25.1277C15.6694 25.461 15.3956 25.8911 15.1217 26.3983C14.428 27.6831 13.76 29.4146 13.76 31.2956C13.76 33.1766 14.428 34.9081 15.1217 36.1929C15.3955 36.6999 15.6692 37.1299 15.899 37.4631Z" fill="white"></path></svg> 