<?xml version="1.0" encoding="UTF-8"?> <svg xmlns="http://www.w3.org/2000/svg" width="58" height="58" viewBox="0 0 58 58" fill="none"><path fill-rule="evenodd" clip-rule="evenodd" d="M29.2596 5.70592C25.33 5.70592 22.1445 8.89149 22.1445 12.8211C22.1445 16.7507 25.33 19.9362 29.2596 19.9362C33.1892 19.9362 36.3748 16.7507 36.3748 12.8211C36.3748 8.89149 33.1892 5.70592 29.2596 5.70592ZM20.4492 12.8211C20.4492 7.95523 24.3938 4.01068 29.2596 4.01068C34.1255 4.01068 38.07 7.95523 38.07 12.8211C38.07 17.6869 34.1255 21.6315 29.2596 21.6315C24.3938 21.6315 20.4492 17.6869 20.4492 12.8211Z" fill="white"></path><path fill-rule="evenodd" clip-rule="evenodd" d="M23.0273 12.4565C20.2488 9.678 15.7434 9.678 12.9648 12.4565C10.1863 15.2351 10.1863 19.7405 12.9648 22.5191C15.7434 25.2976 20.2488 25.2976 23.0273 22.5191C25.8059 19.7405 25.8059 15.2351 23.0273 12.4565ZM11.7661 11.2578C15.2067 7.81726 20.7855 7.81726 24.226 11.2578C27.6666 14.6984 27.6666 20.2772 24.226 23.7178C20.7855 27.1583 15.2067 27.1583 11.7661 23.7178C8.32553 20.2772 8.32553 14.6984 11.7661 11.2578Z" fill="white"></path><path fill-rule="evenodd" clip-rule="evenodd" d="M13.3341 21.6314C9.40449 21.6314 6.21892 24.817 6.21892 28.7466C6.21892 32.6762 9.40449 35.8618 13.3341 35.8618C17.2637 35.8618 20.4492 32.6762 20.4492 28.7466C20.4492 24.817 17.2637 21.6314 13.3341 21.6314ZM4.52368 28.7466C4.52368 23.8807 8.46823 19.9362 13.3341 19.9362C18.1999 19.9362 22.1445 23.8807 22.1445 28.7466C22.1445 33.6124 18.1999 37.557 13.3341 37.557C8.46823 37.557 4.52368 33.6124 4.52368 28.7466Z" fill="white"></path><path fill-rule="evenodd" clip-rule="evenodd" d="M17.9984 32.8927C14.0688 32.8927 10.8832 36.0782 10.8832 40.0078C10.8832 43.9374 14.0688 47.123 17.9984 47.123C21.928 47.123 25.1136 43.9374 25.1136 40.0078C25.1136 36.0782 21.928 32.8927 17.9984 32.8927ZM9.18799 40.0078C9.18799 35.142 13.1325 31.1974 17.9984 31.1974C22.8642 31.1974 26.8088 35.142 26.8088 40.0078C26.8088 44.8737 22.8642 48.8182 17.9984 48.8182C13.1325 48.8182 9.18799 44.8737 9.18799 40.0078Z" fill="white"></path><path fill-rule="evenodd" clip-rule="evenodd" d="M26.8741 37.9686C23.1715 39.2848 21.237 43.3534 22.5533 47.056C23.8695 50.7586 27.9381 52.6931 31.6407 51.3769C35.3433 50.0606 37.2778 45.992 35.9615 42.2894C34.6453 38.5868 30.5767 36.6523 26.8741 37.9686ZM20.9559 47.6238C19.3261 43.0391 21.7215 38.0011 26.3063 36.3713C30.891 34.7414 35.929 37.1368 37.5588 41.7216C39.1887 46.3064 36.7933 51.3443 32.2085 52.9742C27.6237 54.604 22.5858 52.2086 20.9559 47.6238Z" fill="white"></path><path fill-rule="evenodd" clip-rule="evenodd" d="M45.5498 34.9742C42.7713 32.1956 38.2658 32.1956 35.4873 34.9742C32.7087 37.7527 32.7087 42.2582 35.4873 45.0367C38.2658 47.8152 42.7713 47.8152 45.5498 45.0367C48.3283 42.2582 48.3283 37.7527 45.5498 34.9742ZM34.2886 33.7755C37.7291 30.3349 43.3079 30.3349 46.7485 33.7755C50.1891 37.216 50.1891 42.7948 46.7485 46.2354C43.3079 49.676 37.7291 49.676 34.2886 46.2354C30.848 42.7948 30.848 37.216 34.2886 33.7755Z" fill="white"></path><path fill-rule="evenodd" clip-rule="evenodd" d="M45.185 21.6314C41.2554 21.6314 38.0699 24.817 38.0699 28.7466C38.0699 32.6762 41.2554 35.8618 45.185 35.8618C49.1146 35.8618 52.3002 32.6762 52.3002 28.7466C52.3002 24.817 49.1146 21.6314 45.185 21.6314ZM36.3746 28.7466C36.3746 23.8807 40.3192 19.9362 45.185 19.9362C50.0509 19.9362 53.9954 23.8807 53.9954 28.7466C53.9954 33.6124 50.0509 37.557 45.185 37.557C40.3192 37.557 36.3746 33.6124 36.3746 28.7466Z" fill="white"></path><path fill-rule="evenodd" clip-rule="evenodd" d="M40.5209 10.3702C36.5913 10.3702 33.4057 13.5558 33.4057 17.4854C33.4057 21.415 36.5913 24.6005 40.5209 24.6005C44.4504 24.6005 47.636 21.415 47.636 17.4854C47.636 13.5558 44.4504 10.3702 40.5209 10.3702ZM31.7104 17.4854C31.7104 12.6195 35.655 8.67496 40.5209 8.67496C45.3867 8.67496 49.3313 12.6195 49.3313 17.4854C49.3313 22.3512 45.3867 26.2958 40.5209 26.2958C35.655 26.2958 31.7104 22.3512 31.7104 17.4854Z" fill="white"></path><path fill-rule="evenodd" clip-rule="evenodd" d="M25.1562 27.8021C24.6376 30.0681 26.0542 32.3255 28.3202 32.844C30.5862 33.3626 32.8435 31.946 33.3621 29.68C33.8807 27.414 32.4641 25.1567 30.1981 24.6381C27.9321 24.1195 25.6747 25.5361 25.1562 27.8021ZM27.942 34.4966C24.7633 33.7691 22.7762 30.6026 23.5036 27.424C24.2311 24.2453 27.3976 22.2582 30.5763 22.9856C33.7549 23.713 35.7421 26.8795 35.0146 30.0582C34.2872 33.2369 31.1207 35.224 27.942 34.4966Z" fill="white"></path><path fill-rule="evenodd" clip-rule="evenodd" d="M29.2598 1.90374C14.4349 1.90374 2.41692 13.9217 2.41692 28.7466C2.41692 43.5716 14.4349 55.5896 29.2598 55.5896C44.0848 55.5896 56.1027 43.5716 56.1027 28.7466C56.1027 13.9217 44.0848 1.90374 29.2598 1.90374ZM0.72168 28.7466C0.72168 12.9855 13.4986 0.208496 29.2598 0.208496C45.021 0.208496 57.798 12.9855 57.798 28.7466C57.798 44.5078 45.021 57.2848 29.2598 57.2848C13.4986 57.2848 0.72168 44.5078 0.72168 28.7466Z" fill="white"></path></svg> 