<svg xmlns="http://www.w3.org/2000/svg" xmlns:xlink="http://www.w3.org/1999/xlink" zoomAndPan="magnify" preserveAspectRatio="xMidYMid meet" version="1.2" viewBox="29.35 16.19 117.22 30.79"><defs><clipPath id="9a6a3be09d"><path d="M 44 30 L 92 30 L 92 40.480469 L 44 40.480469 Z M 44 30 "/></clipPath><clipPath id="ccaed812c0"><rect x="0" width="48" y="0" height="11"/></clipPath><clipPath id="ad78b01706"><path d="M 0.671875 0.664062 L 139.316406 0.664062 L 139.316406 38 L 0.671875 38 Z M 0.671875 0.664062 "/></clipPath><clipPath id="5cc46b1e88"><path d="M 0.671875 26 L 1 26 L 1 27 L 0.671875 27 Z M 0.671875 26 "/></clipPath><clipPath id="4b420d4378"><rect x="0" width="140" y="0" height="38"/></clipPath><clipPath id="537b75135c"><rect x="0" width="140" y="0" height="41"/></clipPath></defs><g id="589aabc781"><g transform="matrix(1,0,0,1,22,10)"><g clip-path="url(#537b75135c)"><g clip-rule="nonzero" clip-path="url(#9a6a3be09d)"><g transform="matrix(1,0,0,1,44,30)"><g id="21ba6044e9" clip-path="url(#ccaed812c0)"><g style="fill:#000000;fill-opacity:1;"><g transform="translate(0.888805, 6.976391)"><path style="stroke:none" d="M 1.59375 0 C 1.820312 -0.09375 1.9375 -0.257812 1.9375 -0.5 L 1.9375 -4.59375 L 1.734375 -4.59375 C 1.484375 -4.59375 1.242188 -4.53125 1.015625 -4.40625 C 0.785156 -4.289062 0.613281 -4.113281 0.5 -3.875 L 0.625 -4.65625 L 3.8125 -4.65625 L 3.921875 -3.90625 C 3.816406 -4.125 3.648438 -4.289062 3.421875 -4.40625 C 3.191406 -4.53125 2.957031 -4.59375 2.71875 -4.59375 L 2.5 -4.59375 L 2.5 -0.5 C 2.5 -0.257812 2.609375 -0.09375 2.828125 0 Z M 1.59375 0 "/></g></g><g style="fill:#000000;fill-opacity:1;"><g transform="translate(7.631637, 6.976391)"><path style="stroke:none" d="M 0.328125 0 C 0.546875 -0.101562 0.65625 -0.269531 0.65625 -0.5 L 0.65625 -4 C 0.65625 -4.164062 0.640625 -4.300781 0.609375 -4.40625 C 0.585938 -4.507812 0.492188 -4.59375 0.328125 -4.65625 L 1.546875 -4.65625 C 1.429688 -4.613281 1.347656 -4.550781 1.296875 -4.46875 C 1.242188 -4.394531 1.21875 -4.289062 1.21875 -4.15625 L 1.21875 -2.421875 L 3.390625 -2.421875 L 3.390625 -4.203125 C 3.390625 -4.316406 3.359375 -4.410156 3.296875 -4.484375 C 3.242188 -4.554688 3.164062 -4.613281 3.0625 -4.65625 L 4.25 -4.65625 C 4.132812 -4.613281 4.046875 -4.550781 3.984375 -4.46875 C 3.929688 -4.394531 3.90625 -4.289062 3.90625 -4.15625 L 3.90625 -0.5 C 3.90625 -0.269531 4.019531 -0.101562 4.25 0 L 3.0625 0 C 3.164062 -0.0507812 3.242188 -0.109375 3.296875 -0.171875 C 3.359375 -0.242188 3.390625 -0.34375 3.390625 -0.46875 L 3.390625 -2.34375 L 1.21875 -2.34375 L 1.21875 -0.5 C 1.21875 -0.257812 1.328125 -0.09375 1.546875 0 Z M 0.328125 0 "/></g></g><g style="fill:#000000;fill-opacity:1;"><g transform="translate(14.650263, 6.976391)"><path style="stroke:none" d="M 1.21875 -1.734375 L 1.21875 -0.078125 L 1.984375 -0.078125 C 2.273438 -0.078125 2.535156 -0.128906 2.765625 -0.234375 C 3.003906 -0.347656 3.179688 -0.546875 3.296875 -0.828125 L 3.15625 0 L 0.328125 0 C 0.484375 -0.0703125 0.578125 -0.175781 0.609375 -0.3125 C 0.648438 -0.445312 0.671875 -0.59375 0.671875 -0.75 C 0.671875 -1.007812 0.675781 -1.242188 0.6875 -1.453125 C 0.695312 -1.671875 0.757812 -1.859375 0.875 -2.015625 C 1 -2.171875 1.207031 -2.289062 1.5 -2.375 C 1.1875 -2.46875 0.96875 -2.609375 0.84375 -2.796875 C 0.71875 -2.984375 0.65625 -3.234375 0.65625 -3.546875 C 0.65625 -3.671875 0.65625 -3.804688 0.65625 -3.953125 C 0.664062 -4.109375 0.648438 -4.25 0.609375 -4.375 C 0.566406 -4.5 0.472656 -4.59375 0.328125 -4.65625 L 3.15625 -4.65625 L 3.296875 -3.859375 C 3.179688 -4.117188 3.015625 -4.304688 2.796875 -4.421875 C 2.578125 -4.535156 2.332031 -4.59375 2.0625 -4.59375 L 1.21875 -4.59375 L 1.21875 -2.984375 C 1.21875 -2.847656 1.253906 -2.71875 1.328125 -2.59375 C 1.398438 -2.46875 1.515625 -2.40625 1.671875 -2.40625 L 2.15625 -2.40625 C 2.3125 -2.40625 2.429688 -2.453125 2.515625 -2.546875 C 2.609375 -2.640625 2.679688 -2.757812 2.734375 -2.90625 L 2.734375 -1.8125 C 2.679688 -1.957031 2.609375 -2.078125 2.515625 -2.171875 C 2.429688 -2.273438 2.304688 -2.328125 2.140625 -2.328125 L 1.671875 -2.328125 C 1.503906 -2.328125 1.382812 -2.257812 1.3125 -2.125 C 1.25 -2 1.21875 -1.867188 1.21875 -1.734375 Z M 1.21875 -1.734375 "/></g></g><g style="fill:#000000;fill-opacity:1;"><g transform="translate(20.803466, 6.976391)"><path style="stroke:none" d="M 1.640625 -1.828125 C 1.503906 -1.828125 1.398438 -1.773438 1.328125 -1.671875 C 1.253906 -1.566406 1.21875 -1.453125 1.21875 -1.328125 L 1.21875 -0.5 C 1.21875 -0.257812 1.328125 -0.09375 1.546875 0 L 0.328125 0 C 0.492188 -0.0703125 0.585938 -0.160156 0.609375 -0.265625 C 0.640625 -0.367188 0.65625 -0.5 0.65625 -0.65625 C 0.65625 -0.957031 0.71875 -1.210938 0.84375 -1.421875 C 0.96875 -1.628906 1.179688 -1.773438 1.484375 -1.859375 C 1.210938 -1.941406 1.015625 -2.0625 0.890625 -2.21875 C 0.773438 -2.375 0.703125 -2.539062 0.671875 -2.71875 C 0.640625 -2.90625 0.628906 -3.097656 0.640625 -3.296875 C 0.660156 -3.492188 0.671875 -3.6875 0.671875 -3.875 C 0.679688 -4.0625 0.664062 -4.222656 0.625 -4.359375 C 0.582031 -4.492188 0.484375 -4.59375 0.328125 -4.65625 L 1.921875 -4.65625 C 2.222656 -4.65625 2.507812 -4.609375 2.78125 -4.515625 C 3.0625 -4.429688 3.285156 -4.285156 3.453125 -4.078125 C 3.628906 -3.867188 3.71875 -3.59375 3.71875 -3.25 C 3.71875 -2.945312 3.632812 -2.691406 3.46875 -2.484375 C 3.300781 -2.273438 3.09375 -2.113281 2.84375 -2 C 2.59375 -1.894531 2.332031 -1.84375 2.0625 -1.84375 C 2.25 -1.84375 2.410156 -1.789062 2.546875 -1.6875 C 2.691406 -1.59375 2.8125 -1.460938 2.90625 -1.296875 C 3 -1.140625 3.09375 -0.972656 3.1875 -0.796875 C 3.28125 -0.628906 3.378906 -0.472656 3.484375 -0.328125 C 3.597656 -0.179688 3.734375 -0.0703125 3.890625 0 L 2.671875 0 C 2.765625 -0.0390625 2.8125 -0.109375 2.8125 -0.203125 C 2.8125 -0.253906 2.800781 -0.304688 2.78125 -0.359375 C 2.757812 -0.410156 2.734375 -0.457031 2.703125 -0.5 L 2.109375 -1.515625 C 2.066406 -1.597656 2.003906 -1.671875 1.921875 -1.734375 C 1.835938 -1.796875 1.742188 -1.828125 1.640625 -1.828125 Z M 1.21875 -4.59375 L 1.21875 -2.46875 C 1.21875 -2.34375 1.25 -2.21875 1.3125 -2.09375 C 1.382812 -1.96875 1.492188 -1.90625 1.640625 -1.90625 L 1.890625 -1.90625 C 2.304688 -1.90625 2.613281 -2.03125 2.8125 -2.28125 C 3.019531 -2.53125 3.125 -2.851562 3.125 -3.25 C 3.125 -3.644531 3.023438 -3.96875 2.828125 -4.21875 C 2.628906 -4.46875 2.316406 -4.59375 1.890625 -4.59375 Z M 1.21875 -4.59375 "/></g></g><g style="fill:#000000;fill-opacity:1;"><g transform="translate(27.346583, 6.976391)"><path style="stroke:none" d="M 3.296875 0 C 3.367188 -0.03125 3.425781 -0.0664062 3.46875 -0.109375 C 3.507812 -0.160156 3.53125 -0.222656 3.53125 -0.296875 C 3.53125 -0.367188 3.503906 -0.472656 3.453125 -0.609375 C 3.410156 -0.742188 3.359375 -0.890625 3.296875 -1.046875 C 3.234375 -1.210938 3.171875 -1.363281 3.109375 -1.5 C 3.054688 -1.644531 3.015625 -1.757812 2.984375 -1.84375 L 1.46875 -1.84375 C 1.445312 -1.757812 1.40625 -1.648438 1.34375 -1.515625 C 1.28125 -1.390625 1.21875 -1.25 1.15625 -1.09375 C 1.101562 -0.9375 1.050781 -0.789062 1 -0.65625 C 0.957031 -0.53125 0.9375 -0.4375 0.9375 -0.375 C 0.9375 -0.269531 0.96875 -0.1875 1.03125 -0.125 C 1.09375 -0.0703125 1.164062 -0.03125 1.25 0 L 0.40625 0 C 0.53125 -0.0507812 0.632812 -0.125 0.71875 -0.21875 C 0.800781 -0.320312 0.863281 -0.441406 0.90625 -0.578125 L 2.5 -4.71875 L 4.09375 -0.5 C 4.132812 -0.382812 4.191406 -0.285156 4.265625 -0.203125 C 4.335938 -0.117188 4.425781 -0.0507812 4.53125 0 Z M 1.5 -1.90625 L 2.953125 -1.90625 L 2.234375 -3.828125 Z M 1.5 -1.90625 "/></g></g><g style="fill:#000000;fill-opacity:1;"><g transform="translate(34.488844, 6.976391)"><path style="stroke:none" d="M 1.21875 -1.234375 L 1.21875 -0.5 C 1.21875 -0.257812 1.328125 -0.09375 1.546875 0 L 0.328125 0 C 0.492188 -0.0703125 0.585938 -0.175781 0.609375 -0.3125 C 0.640625 -0.445312 0.65625 -0.597656 0.65625 -0.765625 C 0.65625 -0.910156 0.671875 -1.054688 0.703125 -1.203125 C 0.742188 -1.347656 0.820312 -1.476562 0.9375 -1.59375 C 1.0625 -1.707031 1.242188 -1.796875 1.484375 -1.859375 C 1.171875 -1.960938 0.953125 -2.117188 0.828125 -2.328125 C 0.710938 -2.535156 0.65625 -2.796875 0.65625 -3.109375 L 0.65625 -3.9375 C 0.65625 -4.082031 0.632812 -4.222656 0.59375 -4.359375 C 0.5625 -4.492188 0.472656 -4.59375 0.328125 -4.65625 L 1.953125 -4.65625 C 2.265625 -4.65625 2.550781 -4.609375 2.8125 -4.515625 C 3.082031 -4.429688 3.300781 -4.285156 3.46875 -4.078125 C 3.632812 -3.867188 3.71875 -3.59375 3.71875 -3.25 C 3.71875 -2.957031 3.65625 -2.71875 3.53125 -2.53125 C 3.40625 -2.34375 3.238281 -2.195312 3.03125 -2.09375 C 2.832031 -1.988281 2.609375 -1.914062 2.359375 -1.875 C 2.117188 -1.84375 1.878906 -1.828125 1.640625 -1.828125 C 1.484375 -1.828125 1.375 -1.757812 1.3125 -1.625 C 1.25 -1.488281 1.21875 -1.359375 1.21875 -1.234375 Z M 1.21875 -4.59375 L 1.21875 -2.46875 C 1.21875 -2.34375 1.25 -2.21875 1.3125 -2.09375 C 1.382812 -1.96875 1.492188 -1.90625 1.640625 -1.90625 L 1.859375 -1.90625 C 2.253906 -1.90625 2.5625 -2.03125 2.78125 -2.28125 C 3.007812 -2.539062 3.125 -2.863281 3.125 -3.25 C 3.125 -3.632812 3.007812 -3.953125 2.78125 -4.203125 C 2.5625 -4.460938 2.253906 -4.59375 1.859375 -4.59375 Z M 1.21875 -4.59375 "/></g></g><g style="fill:#000000;fill-opacity:1;"><g transform="translate(40.92735, 6.976391)"><path style="stroke:none" d="M 1.390625 0 C 1.617188 -0.101562 1.734375 -0.269531 1.734375 -0.5 L 1.734375 -2.03125 L 0.640625 -4.171875 C 0.578125 -4.285156 0.507812 -4.378906 0.4375 -4.453125 C 0.375 -4.523438 0.285156 -4.59375 0.171875 -4.65625 L 1.421875 -4.65625 C 1.359375 -4.632812 1.304688 -4.597656 1.265625 -4.546875 C 1.222656 -4.503906 1.203125 -4.453125 1.203125 -4.390625 C 1.203125 -4.378906 1.203125 -4.351562 1.203125 -4.3125 C 1.210938 -4.28125 1.226562 -4.242188 1.25 -4.203125 L 2.21875 -2.28125 L 3.1875 -4.171875 C 3.207031 -4.222656 3.222656 -4.269531 3.234375 -4.3125 C 3.242188 -4.351562 3.25 -4.394531 3.25 -4.4375 C 3.25 -4.539062 3.195312 -4.613281 3.09375 -4.65625 L 3.84375 -4.65625 C 3.71875 -4.613281 3.601562 -4.546875 3.5 -4.453125 C 3.40625 -4.367188 3.328125 -4.269531 3.265625 -4.15625 L 2.28125 -2.1875 L 2.28125 -0.5 C 2.28125 -0.363281 2.304688 -0.257812 2.359375 -0.1875 C 2.421875 -0.113281 2.507812 -0.0507812 2.625 0 Z M 1.390625 0 "/></g></g></g></g></g><g clip-rule="nonzero" clip-path="url(#ad78b01706)"><g transform="matrix(1,0,0,1,0.000000000000003553,0.000000000000007105)"><g id="feae3bb128" clip-path="url(#4b420d4378)"><g clip-rule="nonzero" clip-path="url(#5cc46b1e88)"><g style="fill:#515152;fill-opacity:1;"><g transform="translate(0.951801, 26.453407)"><path style="stroke:none" d=""/></g></g></g><g style="fill:#515152;fill-opacity:1;"><g transform="translate(6.041267, 26.453407)"><path style="stroke:none" d="M 1.3125 -8.96875 C 1.3125 -10.644531 1.710938 -12.164062 2.515625 -13.53125 C 3.328125 -14.894531 4.421875 -15.976562 5.796875 -16.78125 C 7.171875 -17.59375 8.691406 -18 10.359375 -18 C 12.015625 -18 13.523438 -17.585938 14.890625 -16.765625 C 16.253906 -15.953125 17.34375 -14.863281 18.15625 -13.5 C 18.976562 -12.132812 19.390625 -10.625 19.390625 -8.96875 C 19.390625 -7.300781 18.976562 -5.785156 18.15625 -4.421875 C 17.34375 -3.054688 16.253906 -1.960938 14.890625 -1.140625 C 13.523438 -0.328125 12.015625 0.078125 10.359375 0.078125 C 8.691406 0.078125 7.175781 -0.328125 5.8125 -1.140625 C 4.445312 -1.960938 3.351562 -3.054688 2.53125 -4.421875 C 1.71875 -5.785156 1.3125 -7.300781 1.3125 -8.96875 Z M 3.6875 -9.40625 C 3.6875 -8.425781 3.851562 -7.40625 4.1875 -6.34375 C 4.519531 -5.28125 4.988281 -4.28125 5.59375 -3.34375 C 6.207031 -2.40625 6.953125 -1.644531 7.828125 -1.0625 C 8.703125 -0.476562 9.691406 -0.1875 10.796875 -0.1875 C 11.816406 -0.1875 12.71875 -0.445312 13.5 -0.96875 C 14.28125 -1.488281 14.9375 -2.171875 15.46875 -3.015625 C 16.007812 -3.859375 16.410156 -4.765625 16.671875 -5.734375 C 16.941406 -6.710938 17.078125 -7.640625 17.078125 -8.515625 C 17.078125 -9.515625 16.914062 -10.546875 16.59375 -11.609375 C 16.28125 -12.671875 15.816406 -13.664062 15.203125 -14.59375 C 14.597656 -15.519531 13.859375 -16.269531 12.984375 -16.84375 C 12.109375 -17.414062 11.109375 -17.703125 9.984375 -17.703125 C 8.960938 -17.703125 8.0625 -17.4375 7.28125 -16.90625 C 6.5 -16.382812 5.835938 -15.707031 5.296875 -14.875 C 4.765625 -14.050781 4.363281 -13.148438 4.09375 -12.171875 C 3.820312 -11.203125 3.6875 -10.28125 3.6875 -9.40625 Z M 3.6875 -9.40625 "/></g></g><g style="fill:#515152;fill-opacity:1;"><g transform="translate(24.546678, 26.453407)"><path style="stroke:none" d="M 4.640625 -14.953125 L 4.640625 -12.796875 L 8.734375 -12.796875 L 8.734375 -12.46875 L 4.640625 -12.46875 L 4.640625 -3.296875 C 4.640625 -2.660156 4.816406 -2.0625 5.171875 -1.5 C 5.523438 -0.9375 6.054688 -0.65625 6.765625 -0.65625 C 7.179688 -0.65625 7.566406 -0.765625 7.921875 -0.984375 C 8.273438 -1.203125 8.570312 -1.472656 8.8125 -1.796875 L 8.921875 -1.75 C 8.609375 -1.21875 8.191406 -0.785156 7.671875 -0.453125 C 7.160156 -0.128906 6.59375 0.03125 5.96875 0.03125 C 4.84375 0.03125 4.035156 -0.351562 3.546875 -1.125 C 3.054688 -1.90625 2.8125 -2.796875 2.8125 -3.796875 L 2.8125 -12.46875 L 1.09375 -12.46875 L 1.09375 -12.796875 C 1.875 -12.796875 2.578125 -12.984375 3.203125 -13.359375 C 3.828125 -13.742188 4.304688 -14.273438 4.640625 -14.953125 Z M 4.640625 -14.953125 "/></g></g><g style="fill:#515152;fill-opacity:1;"><g transform="translate(33.067681, 26.453407)"><path style="stroke:none" d="M 3.765625 -14.046875 L 3.765625 -9.984375 C 4.253906 -10.835938 4.929688 -11.546875 5.796875 -12.109375 C 6.660156 -12.671875 7.582031 -12.953125 8.5625 -12.953125 C 9.414062 -12.953125 10.078125 -12.765625 10.546875 -12.390625 C 11.023438 -12.023438 11.378906 -11.550781 11.609375 -10.96875 C 11.847656 -10.382812 11.992188 -9.75 12.046875 -9.0625 C 12.109375 -8.382812 12.140625 -7.71875 12.140625 -7.0625 L 12.140625 -3.328125 C 12.171875 -2.910156 12.207031 -2.484375 12.25 -2.046875 C 12.300781 -1.609375 12.410156 -1.242188 12.578125 -0.953125 C 12.753906 -0.660156 13.007812 -0.515625 13.34375 -0.515625 C 13.832031 -0.515625 14.210938 -0.765625 14.484375 -1.265625 C 14.753906 -1.765625 14.925781 -2.207031 15 -2.59375 L 15.109375 -2.5625 C 15.003906 -1.875 14.765625 -1.257812 14.390625 -0.71875 C 14.015625 -0.1875 13.4375 0.078125 12.65625 0.078125 C 11.707031 0.078125 11.085938 -0.253906 10.796875 -0.921875 C 10.503906 -1.597656 10.359375 -2.335938 10.359375 -3.140625 L 10.359375 -8.234375 C 10.359375 -8.835938 10.296875 -9.457031 10.171875 -10.09375 C 10.046875 -10.726562 9.796875 -11.265625 9.421875 -11.703125 C 9.046875 -12.140625 8.476562 -12.359375 7.71875 -12.359375 C 6.84375 -12.359375 6.050781 -12.050781 5.34375 -11.4375 C 4.632812 -10.832031 4.109375 -10.140625 3.765625 -9.359375 L 3.765625 -1.90625 C 3.765625 -1.414062 3.875 -1.023438 4.09375 -0.734375 C 4.3125 -0.441406 4.628906 -0.195312 5.046875 0 L 0.65625 0 C 1.195312 -0.238281 1.546875 -0.535156 1.703125 -0.890625 C 1.859375 -1.242188 1.9375 -1.691406 1.9375 -2.234375 L 1.9375 -11.890625 C 1.9375 -13.253906 2.222656 -14.578125 2.796875 -15.859375 C 3.367188 -17.140625 4.191406 -18.191406 5.265625 -19.015625 C 6.335938 -19.847656 7.609375 -20.265625 9.078125 -20.265625 L 9.078125 -18.328125 C 8.660156 -18.421875 8.226562 -18.507812 7.78125 -18.59375 C 7.34375 -18.6875 6.90625 -18.734375 6.46875 -18.734375 C 5.613281 -18.734375 4.992188 -18.472656 4.609375 -17.953125 C 4.222656 -17.441406 3.984375 -16.828125 3.890625 -16.109375 C 3.804688 -15.390625 3.765625 -14.703125 3.765625 -14.046875 Z M 3.765625 -14.046875 "/></g></g><g style="fill:#515152;fill-opacity:1;"><g transform="translate(45.02654, 26.453407)"><path style="stroke:none" d="M 12.734375 -4.96875 L 13.015625 -4.90625 C 12.722656 -4 12.285156 -3.164062 11.703125 -2.40625 C 11.117188 -1.65625 10.414062 -1.046875 9.59375 -0.578125 C 8.78125 -0.117188 7.875 0.109375 6.875 0.109375 C 5.601562 0.109375 4.5 -0.179688 3.5625 -0.765625 C 2.625 -1.347656 1.898438 -2.144531 1.390625 -3.15625 C 0.878906 -4.175781 0.625 -5.296875 0.625 -6.515625 C 0.625 -7.679688 0.851562 -8.742188 1.3125 -9.703125 C 1.78125 -10.671875 2.453125 -11.445312 3.328125 -12.03125 C 4.203125 -12.613281 5.238281 -12.90625 6.4375 -12.90625 C 7.269531 -12.90625 8.019531 -12.695312 8.6875 -12.28125 C 9.351562 -11.875 9.890625 -11.328125 10.296875 -10.640625 C 10.703125 -9.960938 10.90625 -9.21875 10.90625 -8.40625 L 2.859375 -8.40625 C 2.804688 -8.164062 2.765625 -7.914062 2.734375 -7.65625 C 2.710938 -7.40625 2.703125 -7.144531 2.703125 -6.875 C 2.703125 -5.945312 2.851562 -5 3.15625 -4.03125 C 3.46875 -3.070312 3.957031 -2.269531 4.625 -1.625 C 5.300781 -0.976562 6.1875 -0.65625 7.28125 -0.65625 C 8.644531 -0.65625 9.785156 -1.078125 10.703125 -1.921875 C 11.617188 -2.765625 12.296875 -3.78125 12.734375 -4.96875 Z M 6.328125 -12.6875 C 5.617188 -12.6875 5.03125 -12.472656 4.5625 -12.046875 C 4.101562 -11.617188 3.738281 -11.097656 3.46875 -10.484375 C 3.207031 -9.878906 3.015625 -9.273438 2.890625 -8.671875 L 9 -8.671875 C 9 -9.203125 8.910156 -9.78125 8.734375 -10.40625 C 8.566406 -11.03125 8.296875 -11.566406 7.921875 -12.015625 C 7.546875 -12.460938 7.015625 -12.6875 6.328125 -12.6875 Z M 6.328125 -12.6875 "/></g></g><g style="fill:#515152;fill-opacity:1;"><g transform="translate(56.69282, 26.453407)"><path style="stroke:none" d="M 3.328125 -9.84375 C 3.597656 -10.375 4.007812 -10.863281 4.5625 -11.3125 C 5.125 -11.769531 5.738281 -12.140625 6.40625 -12.421875 C 7.082031 -12.703125 7.710938 -12.84375 8.296875 -12.84375 L 8.296875 -10.359375 C 7.984375 -10.671875 7.660156 -10.910156 7.328125 -11.078125 C 7.003906 -11.253906 6.609375 -11.34375 6.140625 -11.34375 C 5.804688 -11.34375 5.414062 -11.234375 4.96875 -11.015625 C 4.53125 -10.796875 4.144531 -10.515625 3.8125 -10.171875 C 3.488281 -9.828125 3.328125 -9.460938 3.328125 -9.078125 L 3.328125 -1.859375 C 3.328125 -0.984375 3.753906 -0.363281 4.609375 0 L 0.21875 0 C 0.757812 -0.238281 1.109375 -0.53125 1.265625 -0.875 C 1.421875 -1.21875 1.5 -1.671875 1.5 -2.234375 L 1.5 -12.796875 C 2.132812 -12.796875 2.578125 -12.648438 2.828125 -12.359375 C 3.085938 -12.066406 3.234375 -11.695312 3.265625 -11.25 C 3.304688 -10.800781 3.328125 -10.332031 3.328125 -9.84375 Z M 3.328125 -9.84375 "/></g></g><g style="fill:#515152;fill-opacity:1;"><g transform="translate(64.409222, 26.453407)"><path style="stroke:none" d=""/></g></g><g style="fill:#515152;fill-opacity:1;"><g transform="translate(69.49237, 26.453407)"><path style="stroke:none" d="M 5.296875 -17.921875 C 4.742188 -17.679688 4.46875 -17.289062 4.46875 -16.75 C 4.46875 -16.582031 4.554688 -16.1875 4.734375 -15.5625 C 4.921875 -14.9375 5.15625 -14.171875 5.4375 -13.265625 C 5.71875 -12.367188 6.023438 -11.421875 6.359375 -10.421875 C 6.703125 -9.421875 7.03125 -8.453125 7.34375 -7.515625 C 7.664062 -6.578125 7.945312 -5.753906 8.1875 -5.046875 C 8.4375 -4.335938 8.609375 -3.828125 8.703125 -3.515625 L 11.671875 -14.59375 C 11.421875 -15.320312 11.1875 -15.976562 10.96875 -16.5625 C 10.75 -17.15625 10.25 -17.609375 9.46875 -17.921875 L 14.234375 -17.921875 C 13.671875 -17.679688 13.390625 -17.289062 13.390625 -16.75 C 13.390625 -16.582031 13.472656 -16.1875 13.640625 -15.5625 C 13.816406 -14.9375 14.050781 -14.171875 14.34375 -13.265625 C 14.632812 -12.367188 14.941406 -11.421875 15.265625 -10.421875 C 15.597656 -9.421875 15.921875 -8.445312 16.234375 -7.5 C 16.554688 -6.550781 16.835938 -5.722656 17.078125 -5.015625 C 17.328125 -4.304688 17.5 -3.789062 17.59375 -3.46875 L 20.953125 -15.984375 C 21.023438 -16.203125 21.0625 -16.429688 21.0625 -16.671875 C 21.0625 -17.265625 20.769531 -17.679688 20.1875 -17.921875 L 23.078125 -17.921875 C 22.617188 -17.722656 22.234375 -17.476562 21.921875 -17.1875 C 21.617188 -16.894531 21.394531 -16.503906 21.25 -16.015625 L 17.78125 -3 L 18.359375 -1.25 C 18.046875 -1.175781 17.695312 -1.023438 17.3125 -0.796875 C 16.9375 -0.578125 16.648438 -0.320312 16.453125 -0.03125 L 11.8125 -14.15625 L 8.890625 -3.03125 L 9.46875 -1.28125 C 9.15625 -1.207031 8.800781 -1.050781 8.40625 -0.8125 C 8.019531 -0.582031 7.742188 -0.320312 7.578125 -0.03125 L 2.296875 -15.984375 C 2.003906 -16.890625 1.429688 -17.535156 0.578125 -17.921875 Z M 5.296875 -17.921875 "/></g></g><g style="fill:#515152;fill-opacity:1;"><g transform="translate(92.203666, 26.453407)"><path style="stroke:none" d="M 3 -8.40625 L 1.0625 -8.40625 C 1.226562 -9.289062 1.601562 -10.066406 2.1875 -10.734375 C 2.78125 -11.398438 3.488281 -11.925781 4.3125 -12.3125 C 5.144531 -12.707031 6 -12.90625 6.875 -12.90625 C 8.34375 -12.90625 9.363281 -12.445312 9.9375 -11.53125 C 10.507812 -10.625 10.796875 -9.5 10.796875 -8.15625 L 10.796875 -2.53125 C 10.796875 -2.28125 10.832031 -1.992188 10.90625 -1.671875 C 10.976562 -1.359375 11.097656 -1.085938 11.265625 -0.859375 C 11.429688 -0.628906 11.675781 -0.515625 12 -0.515625 C 12.488281 -0.515625 12.859375 -0.765625 13.109375 -1.265625 C 13.367188 -1.765625 13.535156 -2.207031 13.609375 -2.59375 L 13.71875 -2.5625 C 13.625 -1.875 13.382812 -1.257812 13 -0.71875 C 12.625 -0.1875 12.046875 0.078125 11.265625 0.078125 C 10.609375 0.078125 10.113281 -0.078125 9.78125 -0.390625 C 9.457031 -0.710938 9.238281 -1.125 9.125 -1.625 C 9.019531 -2.125 8.96875 -2.644531 8.96875 -3.1875 C 8.59375 -2.226562 8.019531 -1.4375 7.25 -0.8125 C 6.488281 -0.195312 5.570312 0.109375 4.5 0.109375 C 3.519531 0.109375 2.648438 -0.1875 1.890625 -0.78125 C 1.140625 -1.382812 0.765625 -2.195312 0.765625 -3.21875 C 0.765625 -4.050781 1.019531 -4.726562 1.53125 -5.25 C 2.039062 -5.769531 2.679688 -6.210938 3.453125 -6.578125 C 4.222656 -6.941406 4.988281 -7.296875 5.75 -7.640625 C 6.519531 -7.984375 7.160156 -8.382812 7.671875 -8.84375 C 8.191406 -9.3125 8.453125 -9.925781 8.453125 -10.6875 C 8.453125 -11.238281 8.285156 -11.707031 7.953125 -12.09375 C 7.628906 -12.488281 7.171875 -12.6875 6.578125 -12.6875 C 5.921875 -12.6875 5.316406 -12.507812 4.765625 -12.15625 C 4.222656 -11.800781 3.789062 -11.332031 3.46875 -10.75 C 3.15625 -10.164062 3 -9.546875 3 -8.890625 C 3 -8.816406 3 -8.734375 3 -8.640625 C 3 -8.554688 3 -8.476562 3 -8.40625 Z M 8.96875 -4.578125 L 8.96875 -9.1875 C 8.96875 -9.476562 8.945312 -9.765625 8.90625 -10.046875 C 8.875 -10.328125 8.796875 -10.597656 8.671875 -10.859375 C 8.742188 -10.109375 8.582031 -9.492188 8.1875 -9.015625 C 7.800781 -8.535156 7.304688 -8.117188 6.703125 -7.765625 C 6.109375 -7.421875 5.5 -7.0625 4.875 -6.6875 C 4.257812 -6.320312 3.738281 -5.878906 3.3125 -5.359375 C 2.882812 -4.835938 2.671875 -4.148438 2.671875 -3.296875 C 2.671875 -2.535156 2.882812 -1.882812 3.3125 -1.34375 C 3.738281 -0.8125 4.351562 -0.546875 5.15625 -0.546875 C 5.8125 -0.546875 6.429688 -0.742188 7.015625 -1.140625 C 7.609375 -1.546875 8.082031 -2.0625 8.4375 -2.6875 C 8.789062 -3.3125 8.96875 -3.941406 8.96875 -4.578125 Z M 8.96875 -4.578125 "/></g></g><g style="fill:#515152;fill-opacity:1;"><g transform="translate(103.723647, 26.453407)"><path style="stroke:none" d="M 4.359375 -12.875 C 4.085938 -12.78125 3.847656 -12.632812 3.640625 -12.4375 C 3.429688 -12.238281 3.328125 -11.984375 3.328125 -11.671875 C 3.328125 -11.492188 3.4375 -11.113281 3.65625 -10.53125 C 3.875 -9.945312 4.15625 -9.269531 4.5 -8.5 C 4.84375 -7.738281 5.191406 -6.953125 5.546875 -6.140625 C 5.898438 -5.335938 6.222656 -4.625 6.515625 -4 C 6.804688 -3.382812 7.007812 -2.941406 7.125 -2.671875 C 7.25 -2.941406 7.457031 -3.390625 7.75 -4.015625 C 8.039062 -4.648438 8.363281 -5.367188 8.71875 -6.171875 C 9.070312 -6.984375 9.410156 -7.769531 9.734375 -8.53125 C 10.066406 -9.300781 10.34375 -9.976562 10.5625 -10.5625 C 10.789062 -11.15625 10.90625 -11.546875 10.90625 -11.734375 C 10.90625 -12.035156 10.820312 -12.273438 10.65625 -12.453125 C 10.5 -12.640625 10.300781 -12.78125 10.0625 -12.875 L 12.953125 -12.875 C 12.515625 -12.707031 12.15625 -12.445312 11.875 -12.09375 C 11.59375 -11.738281 11.351562 -11.351562 11.15625 -10.9375 L 5.40625 2.375 C 5.09375 3.082031 4.625 3.691406 4 4.203125 C 3.382812 4.710938 2.671875 4.96875 1.859375 4.96875 L 1.859375 3 C 2.054688 3.070312 2.265625 3.128906 2.484375 3.171875 C 2.703125 3.222656 2.921875 3.25 3.140625 3.25 C 3.773438 3.25 4.273438 3.039062 4.640625 2.625 C 5.003906 2.21875 5.300781 1.726562 5.53125 1.15625 C 5.769531 0.582031 5.988281 0.078125 6.1875 -0.359375 L 1.46875 -10.9375 C 1.269531 -11.351562 1.015625 -11.738281 0.703125 -12.09375 C 0.398438 -12.445312 0.03125 -12.707031 -0.40625 -12.875 Z M 4.359375 -12.875 "/></g></g><g style="fill:#515152;fill-opacity:1;"><g transform="translate(114.365883, 26.453407)"><path style="stroke:none" d="M 0.875 -3.6875 C 1.238281 -2.738281 1.828125 -1.925781 2.640625 -1.25 C 3.460938 -0.582031 4.398438 -0.25 5.453125 -0.25 C 5.960938 -0.25 6.472656 -0.3125 6.984375 -0.4375 C 7.492188 -0.5625 7.921875 -0.785156 8.265625 -1.109375 C 8.609375 -1.441406 8.78125 -1.914062 8.78125 -2.53125 C 8.78125 -3.15625 8.515625 -3.65625 7.984375 -4.03125 C 7.460938 -4.414062 6.820312 -4.753906 6.0625 -5.046875 C 5.3125 -5.335938 4.550781 -5.644531 3.78125 -5.96875 C 3.019531 -6.300781 2.375 -6.734375 1.84375 -7.265625 C 1.320312 -7.804688 1.0625 -8.503906 1.0625 -9.359375 C 1.0625 -10.554688 1.492188 -11.453125 2.359375 -12.046875 C 3.222656 -12.648438 4.191406 -12.953125 5.265625 -12.953125 C 5.972656 -12.953125 6.707031 -12.851562 7.46875 -12.65625 C 8.238281 -12.457031 8.941406 -12.226562 9.578125 -11.96875 L 9.578125 -9.515625 C 9.097656 -10.265625 8.488281 -10.988281 7.75 -11.6875 C 7.019531 -12.382812 6.15625 -12.734375 5.15625 -12.734375 C 4.5 -12.734375 3.851562 -12.546875 3.21875 -12.171875 C 2.582031 -11.804688 2.265625 -11.238281 2.265625 -10.46875 C 2.265625 -9.800781 2.53125 -9.257812 3.0625 -8.84375 C 3.601562 -8.4375 4.269531 -8.078125 5.0625 -7.765625 C 5.851562 -7.460938 6.640625 -7.132812 7.421875 -6.78125 C 8.203125 -6.425781 8.859375 -5.992188 9.390625 -5.484375 C 9.929688 -4.972656 10.203125 -4.289062 10.203125 -3.4375 C 10.203125 -2.5625 9.984375 -1.859375 9.546875 -1.328125 C 9.109375 -0.804688 8.546875 -0.429688 7.859375 -0.203125 C 7.179688 0.0234375 6.453125 0.140625 5.671875 0.140625 C 4.890625 0.140625 4.082031 0.0664062 3.25 -0.078125 C 2.425781 -0.222656 1.632812 -0.414062 0.875 -0.65625 Z M 0.875 -3.6875 "/></g></g><g style="fill:#515152;fill-opacity:1;"><g transform="translate(123.950127, 26.453407)"><path style="stroke:none" d=""/></g></g><g style="fill:#515152;fill-opacity:1;"><g transform="translate(129.033274, 26.453407)"><path style="stroke:none" d=""/></g></g><g style="fill:#515152;fill-opacity:1;"><g transform="translate(134.116421, 26.453407)"><path style="stroke:none" d=""/></g></g></g></g></g></g></g></g></svg>