<svg xmlns="http://www.w3.org/2000/svg" fill="none" viewBox="-0.72 -0.72 25.41 20.51">
  <g transform="translate(0.0 0.0) scale(0.278) translate(-0.89 -0.79)">
    <path d="M39.4817 3.45552C34.664 9.15556 28.3276 20.4932 40.1025 32.3891C42.0545 34.3606 45.2676 34.2552 47.0674 32.147C51.3776 27.1068 57.0035 16.7569 46.8176 3.63121C44.9787 1.2614 41.4143 1.15989 39.4778 3.45162L39.4817 3.45552Z" stroke="white" stroke-width="2" stroke-linecap="round" stroke-linejoin="round"/>
    <path d="M43.2881 15.9878V60.6237" stroke="white" stroke-width="2" stroke-linecap="round" stroke-linejoin="round"/>
    <path d="M43.3076 53.9633C43.3076 53.9633 44.0923 38.1164 68.4307 38.1164" stroke="white" stroke-width="2" stroke-linecap="round" stroke-linejoin="round"/>
    <path d="M43.2804 55.2048C43.2804 55.2048 43.6123 39.194 19.2778 39.194" stroke="white" stroke-width="2" stroke-linecap="round" stroke-linejoin="round"/>
    <path d="M76.6763 68.3851C76.7935 63.9344 73.8224 61.0219 69.848 61.0219C65.53 61.0219 63.4608 64.2116 63.3125 67.7253C63.1329 63.6494 60.2634 61.0219 56.492 61.0219C52.174 61.0219 50.1048 64.2116 49.9564 67.7253C49.7769 63.6494 46.9073 61.0219 43.1359 61.0219C38.818 61.0219 36.7488 64.2116 36.6004 67.7253C36.4208 63.6494 33.5513 61.0219 29.7799 61.0219C25.4619 61.0219 23.3927 64.2116 23.2444 67.7253C23.0648 63.6494 20.1952 61.0219 16.4238 61.0219C11.8365 61.0219 9.78682 64.6176 9.88443 68.3851" stroke="white" stroke-width="2" stroke-linecap="round" stroke-linejoin="round"/>
    <path d="M84.633 36.8671C79.1945 31.7566 68.2044 24.8345 55.7033 35.9691C53.6342 37.8119 53.5678 41.0289 55.5784 42.938C60.3844 47.5058 70.4219 53.6705 84.0669 44.1873C86.5304 42.4734 86.8193 38.9206 84.6291 36.8671H84.633Z" stroke="white" stroke-width="2" stroke-linecap="round" stroke-linejoin="round"/>
    <path d="M4.12972 32.8888C10.4896 28.9846 22.6548 24.4285 32.6416 37.8626C34.297 40.088 33.7074 43.2503 31.3532 44.7144C25.7196 48.2164 14.6435 52.2181 3.20054 40.1739C1.13135 37.9993 1.57251 34.4621 4.12972 32.8888Z" stroke="white" stroke-width="2" stroke-linecap="round" stroke-linejoin="round"/>
  </g>
</svg>