<?xml version="1.0" encoding="UTF-8"?> <svg xmlns="http://www.w3.org/2000/svg" width="47" height="65" viewBox="0 0 47 65" fill="none"><path fill-rule="evenodd" clip-rule="evenodd" d="M23.6658 6.85356C21.2209 6.85356 19.2388 8.8356 19.2388 11.2806C19.2388 13.7255 21.2209 15.7076 23.6658 15.7076C26.1108 15.7076 28.0928 13.7255 28.0928 11.2806C28.0928 8.8356 26.1108 6.85356 23.6658 6.85356ZM17.5436 11.2806C17.5436 7.89934 20.2846 5.15833 23.6658 5.15833C27.047 5.15833 29.7881 7.89934 29.7881 11.2806C29.7881 14.6618 27.047 17.4028 23.6658 17.4028C20.2846 17.4028 17.5436 14.6618 17.5436 11.2806Z" fill="white"></path><path fill-rule="evenodd" clip-rule="evenodd" d="M23.6658 2.32964C22.8843 2.32964 22.2515 2.96245 22.2515 3.74395C22.2515 4.52546 22.8843 5.15827 23.6658 5.15827C24.4473 5.15827 25.0801 4.52546 25.0801 3.74395C25.0801 2.96245 24.4473 2.32964 23.6658 2.32964ZM20.5562 3.74395C20.5562 2.02619 21.948 0.634399 23.6658 0.634399C25.3835 0.634399 26.7753 2.02619 26.7753 3.74395C26.7753 5.46172 25.3835 6.85351 23.6658 6.85351C21.948 6.85351 20.5562 5.46172 20.5562 3.74395Z" fill="white"></path><path fill-rule="evenodd" clip-rule="evenodd" d="M23.6657 15.7076C24.1339 15.7076 24.5134 16.0871 24.5134 16.5552V63.7119C24.5134 64.1801 24.1339 64.5596 23.6657 64.5596C23.1976 64.5596 22.8181 64.1801 22.8181 63.7119V16.5552C22.8181 16.0871 23.1976 15.7076 23.6657 15.7076Z" fill="white"></path><path fill-rule="evenodd" clip-rule="evenodd" d="M37.993 18.9334C35.548 18.9334 33.566 20.9154 33.566 23.3604C33.566 25.8054 35.548 27.7874 37.993 27.7874C40.4379 27.7874 42.42 25.8054 42.42 23.3604C42.42 20.9154 40.4379 18.9334 37.993 18.9334ZM31.8707 23.3604C31.8707 19.9792 34.6117 17.2382 37.993 17.2382C41.3742 17.2382 44.1152 19.9792 44.1152 23.3604C44.1152 26.7416 41.3742 29.4826 37.993 29.4826C34.6117 29.4826 31.8707 26.7416 31.8707 23.3604Z" fill="white"></path><path fill-rule="evenodd" clip-rule="evenodd" d="M44.3248 17.0334C43.7743 16.4829 42.8773 16.4829 42.3267 17.0334C41.7762 17.5839 41.7762 18.4809 42.3267 19.0314C42.8773 19.5819 43.7743 19.5819 44.3248 19.0314C44.8753 18.4809 44.8753 17.5839 44.3248 17.0334ZM41.128 15.8347C42.3406 14.6222 44.3109 14.6222 45.5235 15.8347C46.736 17.0472 46.736 19.0176 45.5235 20.2302C44.3109 21.4427 42.3406 21.4427 41.128 20.2302C39.9155 19.0176 39.9155 17.0472 41.128 15.8347Z" fill="white"></path><path fill-rule="evenodd" clip-rule="evenodd" d="M34.8628 26.4904C35.1938 26.8215 35.1938 27.3581 34.8628 27.6892L24.2651 38.2868C23.9341 38.6179 23.3974 38.6179 23.0664 38.2868C22.7354 37.9558 22.7354 37.4191 23.0664 37.0881L33.664 26.4904C33.9951 26.1594 34.5317 26.1594 34.8628 26.4904Z" fill="white"></path><path fill-rule="evenodd" clip-rule="evenodd" d="M9.33848 18.9334C6.89352 18.9334 4.91149 20.9154 4.91149 23.3604C4.91149 25.8054 6.89352 27.7874 9.33848 27.7874C11.7834 27.7874 13.7655 25.8054 13.7655 23.3604C13.7655 20.9154 11.7834 18.9334 9.33848 18.9334ZM3.21625 23.3604C3.21625 19.9792 5.95727 17.2382 9.33848 17.2382C12.7197 17.2382 15.4607 19.9792 15.4607 23.3604C15.4607 26.7416 12.7197 29.4826 9.33848 29.4826C5.95727 29.4826 3.21625 26.7416 3.21625 23.3604Z" fill="white"></path><path fill-rule="evenodd" clip-rule="evenodd" d="M1.81297 15.8347C3.02551 14.6222 4.99588 14.6222 6.20842 15.8347C7.42096 17.0472 7.42096 19.0176 6.20842 20.2302C4.99588 21.4427 3.02551 21.4427 1.81297 20.2302C0.600429 19.0176 0.600429 17.0472 1.81297 15.8347ZM5.00971 17.0334C4.4592 16.4829 3.56219 16.4829 3.01169 17.0334C2.46118 17.5839 2.46118 18.4809 3.01169 19.0314C3.56219 19.5819 4.4592 19.5819 5.00971 19.0314C5.56022 18.4809 5.56022 17.5839 5.00971 17.0334Z" fill="white"></path><path fill-rule="evenodd" clip-rule="evenodd" d="M12.4687 26.4904C12.7997 26.1594 13.3364 26.1594 13.6674 26.4904L24.265 37.0881C24.5961 37.4191 24.5961 37.9558 24.265 38.2868C23.934 38.6179 23.3973 38.6179 23.0663 38.2868L12.4687 27.6892C12.1376 27.3581 12.1376 26.8215 12.4687 26.4904Z" fill="white"></path><path fill-rule="evenodd" clip-rule="evenodd" d="M37.993 37.0192C35.548 37.0192 33.566 39.0012 33.566 41.4462C33.566 43.8911 35.548 45.8731 37.993 45.8731C40.4379 45.8731 42.42 43.8911 42.42 41.4462C42.42 39.0012 40.4379 37.0192 37.993 37.0192ZM31.8707 41.4462C31.8707 38.0649 34.6117 35.3239 37.993 35.3239C41.3742 35.3239 44.1152 38.0649 44.1152 41.4462C44.1152 44.8274 41.3742 47.5684 37.993 47.5684C34.6117 47.5684 31.8707 44.8274 31.8707 41.4462Z" fill="white"></path><path fill-rule="evenodd" clip-rule="evenodd" d="M44.3248 35.1192C43.7743 34.5687 42.8773 34.5687 42.3267 35.1192C41.7762 35.6697 41.7762 36.5667 42.3267 37.1173C42.8773 37.6678 43.7743 37.6678 44.3248 37.1173C44.8753 36.5667 44.8753 35.6697 44.3248 35.1192ZM41.128 33.9205C42.3406 32.708 44.3109 32.708 45.5235 33.9205C46.736 35.1331 46.736 37.1034 45.5235 38.316C44.3109 39.5285 42.3406 39.5285 41.128 38.316C39.9155 37.1034 39.9155 35.1331 41.128 33.9205Z" fill="white"></path><path fill-rule="evenodd" clip-rule="evenodd" d="M34.8628 44.5763C35.1938 44.9073 35.1938 45.444 34.8628 45.775L24.2651 56.3727C23.9341 56.7037 23.3974 56.7037 23.0664 56.3727C22.7354 56.0417 22.7354 55.505 23.0664 55.174L33.664 44.5763C33.9951 44.2453 34.5317 44.2453 34.8628 44.5763Z" fill="white"></path><path fill-rule="evenodd" clip-rule="evenodd" d="M9.33848 37.0192C6.89352 37.0192 4.91149 39.0012 4.91149 41.4462C4.91149 43.8911 6.89352 45.8731 9.33848 45.8731C11.7834 45.8731 13.7655 43.8911 13.7655 41.4462C13.7655 39.0012 11.7834 37.0192 9.33848 37.0192ZM3.21625 41.4462C3.21625 38.0649 5.95727 35.3239 9.33848 35.3239C12.7197 35.3239 15.4607 38.0649 15.4607 41.4462C15.4607 44.8274 12.7197 47.5684 9.33848 47.5684C5.95727 47.5684 3.21625 44.8274 3.21625 41.4462Z" fill="white"></path><path fill-rule="evenodd" clip-rule="evenodd" d="M1.81297 33.9205C3.02551 32.708 4.99588 32.708 6.20842 33.9205C7.42096 35.1331 7.42096 37.1034 6.20842 38.316C4.99588 39.5285 3.02551 39.5285 1.81297 38.316C0.600429 37.1034 0.600429 35.1331 1.81297 33.9205ZM5.00971 35.1192C4.4592 34.5687 3.56219 34.5687 3.01169 35.1192C2.46118 35.6697 2.46118 36.5667 3.01169 37.1173C3.56219 37.6678 4.4592 37.6678 5.00971 37.1173C5.56022 36.5667 5.56022 35.6697 5.00971 35.1192Z" fill="white"></path><path fill-rule="evenodd" clip-rule="evenodd" d="M12.4687 44.5763C12.7997 44.2453 13.3364 44.2453 13.6674 44.5763L24.265 55.174C24.5961 55.505 24.5961 56.0417 24.265 56.3727C23.934 56.7037 23.3973 56.7037 23.0663 56.3727L12.4687 45.775C12.1376 45.444 12.1376 44.9073 12.4687 44.5763Z" fill="white"></path></svg> 